<svg width="44" height="44" viewBox="0 0 44 44" fill="none" xmlns="http://www.w3.org/2000/svg">
<g id="Icon">
<rect id="Base" y="0.0959167" width="44" height="43.697" rx="16" fill="white"/>
<g id="CaretRight">
<path id="Vector" d="M20.1632 28.238C19.9871 28.3983 19.7483 28.4884 19.4992 28.4884C19.2501 28.4884 19.0112 28.3983 18.8351 28.238C18.659 28.0776 18.5601 27.8602 18.5601 27.6334C18.5601 27.4067 18.659 27.1892 18.8351 27.0289L24.4218 21.9444L18.8367 16.8585C18.7495 16.7791 18.6803 16.6849 18.6331 16.5812C18.5859 16.4774 18.5616 16.3663 18.5616 16.254C18.5616 16.1417 18.5859 16.0305 18.6331 15.9268C18.6803 15.8231 18.7495 15.7288 18.8367 15.6495C18.9239 15.5701 19.0274 15.5071 19.1414 15.4641C19.2553 15.4212 19.3774 15.399 19.5007 15.399C19.6241 15.399 19.7462 15.4212 19.8601 15.4641C19.9741 15.5071 20.0776 15.5701 20.1648 15.6495L26.4148 21.3392C26.5021 21.4186 26.5713 21.5128 26.6185 21.6166C26.6657 21.7204 26.6899 21.8317 26.6898 21.944C26.6896 22.0563 26.6651 22.1675 26.6177 22.2712C26.5702 22.3749 26.5008 22.469 26.4132 22.5482L20.1632 28.238Z" fill="#23232D"/>
</g>
</g>
</svg>
