<svg width="25" height="25" viewBox="0 0 25 25" fill="none" xmlns="http://www.w3.org/2000/svg">
<g id="bank">
<path id="Icon" d="M5.89067 9.64432V17.6327M10.3841 9.64432V17.6327M15.3768 9.64432V17.6327M19.8703 9.64432V17.6327M3.89359 19.2303L3.89359 20.0292C3.89359 20.5884 3.89359 20.868 4.00242 21.0816C4.09815 21.2695 4.25091 21.4223 4.4388 21.518C4.6524 21.6268 4.93202 21.6268 5.49125 21.6268H20.2697C20.8289 21.6268 21.1085 21.6268 21.3221 21.518C21.51 21.4223 21.6628 21.2695 21.7585 21.0816C21.8673 20.868 21.8673 20.5884 21.8673 20.0292V19.2303C21.8673 18.6711 21.8673 18.3915 21.7585 18.1779C21.6628 17.99 21.51 17.8372 21.3221 17.7415C21.1085 17.6327 20.8289 17.6327 20.2697 17.6327H5.49125C4.93202 17.6327 4.6524 17.6327 4.4388 17.7415C4.25091 17.8372 4.09815 17.99 4.00242 18.1779C3.89359 18.3915 3.89359 18.6711 3.89359 19.2303ZM12.5339 3.73009L5.14467 5.37214C4.69826 5.47134 4.47506 5.52094 4.30844 5.64097C4.16148 5.74685 4.04609 5.8907 3.97462 6.05713C3.89359 6.24581 3.89359 6.47446 3.89359 6.93176L3.89359 8.04666C3.89359 8.60589 3.89359 8.88551 4.00242 9.09911C4.09815 9.287 4.25091 9.43976 4.4388 9.53549C4.6524 9.64432 4.93202 9.64432 5.49125 9.64432H20.2697C20.8289 9.64432 21.1085 9.64432 21.3221 9.53549C21.51 9.43976 21.6628 9.287 21.7585 9.09911C21.8673 8.88551 21.8673 8.60589 21.8673 8.04666V6.93176C21.8673 6.47446 21.8673 6.24581 21.7863 6.05713C21.7148 5.8907 21.5994 5.74685 21.4525 5.64097C21.2859 5.52094 21.0627 5.47134 20.6163 5.37214L13.227 3.73009C13.0977 3.70135 13.033 3.68698 12.9677 3.68125C12.9097 3.67616 12.8513 3.67616 12.7932 3.68125C12.7279 3.68698 12.6632 3.70135 12.5339 3.73009Z" stroke="white" stroke-width="1.99708" stroke-linecap="round" stroke-linejoin="round"/>
</g>
</svg>
