<svg width="27" height="27" viewBox="0 0 27 27" fill="none" xmlns="http://www.w3.org/2000/svg">
<g id="cloud-download">
<path id="Vector" d="M19.5356 9.988C19.5436 9.98796 19.5517 9.98795 19.5598 9.98795C22.2526 9.98795 24.4355 12.1748 24.4355 14.8726C24.4355 17.3869 22.5394 19.4574 20.1016 19.7274M19.5356 9.988C19.5516 9.80923 19.5598 9.62818 19.5598 9.44521C19.5598 6.14801 16.8918 3.4751 13.6006 3.4751C10.4837 3.4751 7.9257 5.8725 7.66359 8.92712M19.5356 9.988C19.4247 11.2194 18.9407 12.343 18.1977 13.2444M7.66359 8.92712C4.91539 9.18911 2.76578 11.508 2.76578 14.3298C2.76578 16.9555 4.62695 19.1458 7.09972 19.6486M7.66359 8.92712C7.83461 8.91081 8.00794 8.90247 8.18321 8.90247C9.40302 8.90247 10.5287 9.30636 11.4342 9.98795" stroke="#532181" stroke-width="1.62523" stroke-linejoin="round"/>
<path id="Vector_2" d="M13.6041 14.3093V22.3866M10.3536 19.7268L13.6041 22.9772L16.8545 19.7268" stroke="#532181" stroke-width="1.62523"/>
</g>
</svg>
