<svg width="45" height="45" viewBox="0 0 45 45" fill="none" xmlns="http://www.w3.org/2000/svg">
<g id="Component 67">
<rect id="Rectangle 302" width="43.9024" height="44.2831" rx="21.9512" transform="matrix(-1 0 0 1 44.4389 0.384766)" fill="#877F8F" fill-opacity="0.1"/>
<path id="Path 872" fill-rule="evenodd" clip-rule="evenodd" d="M21.658 17.5063C21.4644 17.3111 21.1506 17.3111 20.957 17.5063L16.3308 22.1727C16.2378 22.2664 16.1856 22.3936 16.1856 22.5262C16.1856 22.6588 16.2378 22.786 16.3308 22.8797L20.957 27.5462C21.1506 27.7414 21.4644 27.7414 21.658 27.5462C21.8516 27.3509 21.8516 27.0343 21.658 26.8391L17.8779 23.0261H28.5774C28.8512 23.0261 29.0731 22.8023 29.0731 22.5262C29.0731 22.2501 28.8512 22.0262 28.5774 22.0262H17.8779L21.658 18.2134C21.8516 18.0181 21.8516 17.7016 21.658 17.5063Z" fill="#532181"/>
</g>
</svg>
