<svg width="65" height="12" viewBox="0 0 65 12" fill="none" xmlns="http://www.w3.org/2000/svg">
<g id="Component 29">
<path id="Path 635" fill-rule="evenodd" clip-rule="evenodd" d="M7.02089 1.04535C6.64606 0.872904 6.21121 0.872903 5.83637 1.04535C5.57688 1.16473 5.39281 1.39071 5.2297 1.64611C5.06572 1.9029 4.8858 2.25195 4.66175 2.68661L4.66174 2.68663L4.65297 2.70365L4.47239 3.05398C4.31875 3.35203 4.27408 3.43014 4.21799 3.48709C4.16013 3.54582 4.09075 3.59275 4.01393 3.6251C3.93945 3.65647 3.84845 3.67013 3.50701 3.70694L3.34308 3.7246L3.32341 3.72672H3.3234C2.78515 3.78473 2.35518 3.83107 2.02965 3.89529C1.7086 3.95864 1.4094 4.0524 1.19995 4.25968C0.90029 4.55624 0.759214 4.97077 0.817957 5.3821C0.859013 5.66958 1.04186 5.91773 1.26093 6.15403C1.48306 6.3936 1.80008 6.67919 2.19694 7.03664L2.21144 7.04971L2.38451 7.20557C2.68513 7.47634 2.7622 7.55293 2.80539 7.63449C2.84997 7.71873 2.87372 7.81185 2.87475 7.90653C2.87574 7.99809 2.84373 8.10256 2.70605 8.48317L2.69955 8.50116L2.69954 8.50121C2.49637 9.06283 2.33547 9.50765 2.24412 9.85369C2.15538 10.1898 2.10566 10.5199 2.22135 10.8058C2.38415 11.208 2.73685 11.5095 3.16873 11.6155C3.47476 11.6907 3.80319 11.6031 4.13286 11.477C4.47128 11.3475 4.89982 11.1397 5.44013 10.8776L5.45782 10.8691L5.87794 10.6653C6.1612 10.5279 6.23855 10.4941 6.31278 10.4805C6.38933 10.4667 6.46794 10.4667 6.54448 10.4805C6.61871 10.4941 6.69607 10.5279 6.97933 10.6653L7.39945 10.8691L7.41719 10.8776C7.95748 11.1397 8.386 11.3475 8.7244 11.477C9.05405 11.6031 9.3825 11.6907 9.68853 11.6155C10.1204 11.5095 10.4731 11.208 10.6359 10.8058C10.7516 10.5199 10.7019 10.1898 10.6132 9.85369C10.5218 9.50765 10.3609 9.06283 10.1577 8.50116V8.50111L10.1512 8.48317C10.0136 8.10256 9.98154 7.99809 9.9825 7.90653C9.98355 7.81185 10.0073 7.71873 10.0519 7.63449C10.0951 7.55293 10.1721 7.47634 10.4728 7.20557L10.6458 7.04971L10.6603 7.03659C11.0572 6.67914 11.3742 6.3936 11.5963 6.15403C11.8154 5.91773 11.9983 5.66958 12.0393 5.3821C12.0981 4.97077 11.957 4.55624 11.6573 4.25968C11.4479 4.0524 11.1487 3.95864 10.8276 3.89529C10.5021 3.83107 10.0721 3.78473 9.53388 3.72672L9.51418 3.7246L9.35028 3.70694C9.00881 3.67013 8.9178 3.65647 8.84336 3.6251C8.76651 3.59275 8.69715 3.54582 8.63931 3.48709C8.58322 3.43014 8.53854 3.35203 8.38489 3.05397L8.20431 2.70366L8.19551 2.68662C7.97146 2.25195 7.79158 1.9029 7.62758 1.64611C7.46449 1.39071 7.28044 1.16474 7.02089 1.04535Z" fill="#FFC250"/>
<path id="Path 636" fill-rule="evenodd" clip-rule="evenodd" d="M20.0399 1.04535C19.665 0.872904 19.2302 0.872903 18.8554 1.04535C18.5959 1.16473 18.4118 1.39071 18.2487 1.64611C18.0847 1.9029 17.9048 2.25195 17.6807 2.68661L17.6807 2.68663L17.672 2.70365L17.4914 3.05398C17.3377 3.35203 17.2931 3.43014 17.237 3.48709C17.1791 3.54582 17.1097 3.59275 17.0329 3.6251C16.9584 3.65647 16.8674 3.67013 16.526 3.70694L16.3621 3.7246L16.3424 3.72672H16.3424C15.8041 3.78473 15.3742 3.83107 15.0486 3.89529C14.7276 3.95864 14.4284 4.0524 14.2189 4.25968C13.9193 4.55624 13.7782 4.97077 13.8369 5.3821C13.878 5.66958 14.0608 5.91773 14.2799 6.15403C14.502 6.3936 14.8191 6.67919 15.2159 7.03664L15.2304 7.04971L15.4035 7.20557C15.7041 7.47634 15.7812 7.55293 15.8244 7.63449C15.869 7.71873 15.8927 7.81185 15.8937 7.90653C15.8947 7.99809 15.8627 8.10256 15.725 8.48317L15.7185 8.50116L15.7185 8.50121C15.5154 9.06283 15.3545 9.50765 15.2631 9.85369C15.1744 10.1898 15.1246 10.5199 15.2403 10.8058C15.4031 11.208 15.7558 11.5095 16.1877 11.6155C16.4937 11.6907 16.8222 11.6031 17.1518 11.477C17.4903 11.3475 17.9188 11.1397 18.4591 10.8776L18.4768 10.8691L18.8969 10.6653C19.1802 10.5279 19.2575 10.4941 19.3318 10.4805C19.4083 10.4667 19.4869 10.4667 19.5635 10.4805C19.6377 10.4941 19.715 10.5279 19.9983 10.6653L20.4184 10.8691L20.4362 10.8776C20.9765 11.1397 21.405 11.3475 21.7434 11.477C22.073 11.6031 22.4015 11.6907 22.7075 11.6155C23.1394 11.5095 23.4921 11.208 23.6549 10.8058C23.7706 10.5199 23.7208 10.1898 23.6321 9.85369C23.5408 9.50765 23.3799 9.06283 23.1767 8.50116V8.50111L23.1702 8.48317C23.0325 8.10256 23.0005 7.99809 23.0015 7.90653C23.0025 7.81185 23.0263 7.71873 23.0709 7.63449C23.1141 7.55293 23.1911 7.47634 23.4918 7.20557L23.6648 7.04971L23.6793 7.03659C24.0762 6.67914 24.3932 6.3936 24.6153 6.15403C24.8344 5.91773 25.0172 5.66958 25.0583 5.3821C25.1171 4.97077 24.976 4.55624 24.6763 4.25968C24.4669 4.0524 24.1677 3.95864 23.8466 3.89529C23.5211 3.83107 23.0911 3.78473 22.5529 3.72672L22.5332 3.7246L22.3693 3.70694C22.0278 3.67013 21.9368 3.65647 21.8623 3.6251C21.7855 3.59275 21.7161 3.54582 21.6583 3.48709C21.6022 3.43014 21.5575 3.35203 21.4039 3.05397L21.2233 2.70366L21.2145 2.68662C20.9904 2.25195 20.8106 1.9029 20.6466 1.64611C20.4835 1.39071 20.2994 1.16474 20.0399 1.04535Z" fill="#FFC250"/>
<path id="Path 637" fill-rule="evenodd" clip-rule="evenodd" d="M33.0589 1.04535C32.684 0.872904 32.2492 0.872903 31.8744 1.04535C31.6149 1.16473 31.4308 1.39071 31.2677 1.64611C31.1037 1.9029 30.9238 2.25195 30.6997 2.68661L30.6997 2.68663L30.6909 2.70365L30.5104 3.05398C30.3567 3.35203 30.3121 3.43014 30.256 3.48709C30.1981 3.54582 30.1287 3.59275 30.0519 3.6251C29.9774 3.65647 29.8864 3.67013 29.545 3.70694L29.3811 3.7246L29.3614 3.72672H29.3614C28.8231 3.78473 28.3932 3.83107 28.0676 3.89529C27.7466 3.95864 27.4474 4.0524 27.2379 4.25968C26.9383 4.55624 26.7972 4.97077 26.8559 5.3821C26.897 5.66958 27.0798 5.91773 27.2989 6.15403C27.521 6.3936 27.8381 6.67919 28.2349 7.03664L28.2494 7.04971L28.4225 7.20557C28.7231 7.47634 28.8002 7.55293 28.8434 7.63449C28.888 7.71873 28.9117 7.81185 28.9127 7.90653C28.9137 7.99809 28.8817 8.10256 28.744 8.48317L28.7375 8.50116L28.7375 8.50121C28.5344 9.06283 28.3735 9.50765 28.2821 9.85369C28.1934 10.1898 28.1436 10.5199 28.2593 10.8058C28.4221 11.208 28.7748 11.5095 29.2067 11.6155C29.5127 11.6907 29.8412 11.6031 30.1708 11.477C30.5093 11.3475 30.9378 11.1397 31.4781 10.8776L31.4958 10.8691L31.9159 10.6653C32.1992 10.5279 32.2765 10.4941 32.3508 10.4805C32.4273 10.4667 32.5059 10.4667 32.5825 10.4805C32.6567 10.4941 32.734 10.5279 33.0173 10.6653L33.4374 10.8691L33.4552 10.8776C33.9955 11.1397 34.424 11.3475 34.7624 11.477C35.092 11.6031 35.4205 11.6907 35.7265 11.6155C36.1584 11.5095 36.5111 11.208 36.6739 10.8058C36.7896 10.5199 36.7398 10.1898 36.6511 9.85369C36.5598 9.50765 36.3989 9.06283 36.1957 8.50116V8.50111L36.1892 8.48317C36.0515 8.10256 36.0195 7.99809 36.0205 7.90653C36.0215 7.81185 36.0453 7.71873 36.0899 7.63449C36.1331 7.55293 36.2101 7.47634 36.5108 7.20557L36.6838 7.04971L36.6983 7.03659C37.0952 6.67914 37.4122 6.3936 37.6343 6.15403C37.8534 5.91773 38.0362 5.66958 38.0773 5.3821C38.1361 4.97077 37.995 4.55624 37.6953 4.25968C37.4858 4.0524 37.1867 3.95864 36.8656 3.89529C36.5401 3.83107 36.1101 3.78473 35.5719 3.72672L35.5522 3.7246L35.3883 3.70694C35.0468 3.67013 34.9558 3.65647 34.8813 3.6251C34.8045 3.59275 34.7351 3.54582 34.6773 3.48709C34.6212 3.43014 34.5765 3.35203 34.4229 3.05397L34.2423 2.70366L34.2335 2.68662C34.0094 2.25195 33.8296 1.9029 33.6656 1.64611C33.5025 1.39071 33.3184 1.16474 33.0589 1.04535Z" fill="#FFC250"/>
<path id="Path 638" fill-rule="evenodd" clip-rule="evenodd" d="M46.0779 1.04535C45.703 0.872904 45.2682 0.872903 44.8933 1.04535C44.6338 1.16473 44.4498 1.39071 44.2867 1.64611C44.1227 1.9029 43.9428 2.25195 43.7187 2.68661L43.7187 2.68663L43.7099 2.70365L43.5294 3.05398C43.3757 3.35203 43.331 3.43014 43.2749 3.48709C43.2171 3.54582 43.1477 3.59275 43.0709 3.6251C42.9964 3.65647 42.9054 3.67013 42.564 3.70694L42.4 3.7246L42.3804 3.72672H42.3804C41.8421 3.78473 41.4121 3.83107 41.0866 3.89529C40.7656 3.95864 40.4664 4.0524 40.2569 4.25968C39.9573 4.55624 39.8162 4.97077 39.8749 5.3821C39.916 5.66958 40.0988 5.91773 40.3179 6.15403C40.54 6.3936 40.857 6.67919 41.2539 7.03664L41.2684 7.04971L41.4415 7.20557C41.7421 7.47634 41.8192 7.55293 41.8623 7.63449C41.9069 7.71873 41.9307 7.81185 41.9317 7.90653C41.9327 7.99809 41.9007 8.10256 41.763 8.48317L41.7565 8.50116L41.7565 8.50121C41.5533 9.06283 41.3924 9.50765 41.3011 9.85369C41.2123 10.1898 41.1626 10.5199 41.2783 10.8058C41.4411 11.208 41.7938 11.5095 42.2257 11.6155C42.5317 11.6907 42.8602 11.6031 43.1898 11.477C43.5282 11.3475 43.9568 11.1397 44.4971 10.8776L44.5148 10.8691L44.9349 10.6653C45.2182 10.5279 45.2955 10.4941 45.3697 10.4805C45.4463 10.4667 45.5249 10.4667 45.6014 10.4805C45.6757 10.4941 45.753 10.5279 46.0363 10.6653L46.4564 10.8691L46.4742 10.8776C47.0144 11.1397 47.443 11.3475 47.7814 11.477C48.111 11.6031 48.4395 11.6907 48.7455 11.6155C49.1774 11.5095 49.5301 11.208 49.6929 10.8058C49.8086 10.5199 49.7588 10.1898 49.6701 9.85369C49.5787 9.50765 49.4179 9.06283 49.2147 8.50116V8.50111L49.2082 8.48317C49.0705 8.10256 49.0385 7.99809 49.0395 7.90653C49.0405 7.81185 49.0642 7.71873 49.1089 7.63449C49.152 7.55293 49.2291 7.47634 49.5297 7.20557L49.7028 7.04971L49.7173 7.03659C50.1142 6.67914 50.4312 6.3936 50.6533 6.15403C50.8724 5.91773 51.0552 5.66958 51.0963 5.3821C51.155 4.97077 51.014 4.55624 50.7143 4.25968C50.5048 4.0524 50.2056 3.95864 49.8846 3.89529C49.559 3.83107 49.1291 3.78473 48.5908 3.72672L48.5711 3.7246L48.4072 3.70694C48.0658 3.67013 47.9748 3.65647 47.9003 3.6251C47.8235 3.59275 47.7541 3.54582 47.6963 3.48709C47.6402 3.43014 47.5955 3.35203 47.4419 3.05397L47.2613 2.70366L47.2525 2.68662C47.0284 2.25195 46.8485 1.9029 46.6845 1.64611C46.5214 1.39071 46.3374 1.16474 46.0779 1.04535Z" fill="#FFC250"/>
<path id="Path 639" fill-rule="evenodd" clip-rule="evenodd" d="M59.0968 1.04535C58.722 0.872904 58.2871 0.872903 57.9123 1.04535C57.6528 1.16473 57.4687 1.39071 57.3056 1.64611C57.1416 1.9029 56.9617 2.25195 56.7377 2.68661L56.7377 2.68663L56.7289 2.70365L56.5483 3.05398C56.3947 3.35203 56.35 3.43014 56.2939 3.48709C56.2361 3.54582 56.1667 3.59275 56.0899 3.6251C56.0154 3.65647 55.9244 3.67013 55.5829 3.70694L55.419 3.7246L55.3993 3.72672H55.3993C54.8611 3.78473 54.4311 3.83107 54.1056 3.89529C53.7845 3.95864 53.4853 4.0524 53.2759 4.25968C52.9762 4.55624 52.8351 4.97077 52.8939 5.3821C52.9349 5.66958 53.1178 5.91773 53.3369 6.15403C53.559 6.3936 53.876 6.67919 54.2729 7.03664L54.2874 7.04971L54.4604 7.20557C54.7611 7.47634 54.8381 7.55293 54.8813 7.63449C54.9259 7.71873 54.9496 7.81185 54.9507 7.90653C54.9517 7.99809 54.9197 8.10256 54.782 8.48317L54.7755 8.50116L54.7755 8.50121C54.5723 9.06283 54.4114 9.50765 54.3201 9.85369C54.2313 10.1898 54.1816 10.5199 54.2973 10.8058C54.4601 11.208 54.8128 11.5095 55.2447 11.6155C55.5507 11.6907 55.8791 11.6031 56.2088 11.477C56.5472 11.3475 56.9757 11.1397 57.5161 10.8776L57.5337 10.8691L57.9539 10.6653C58.2371 10.5279 58.3145 10.4941 58.3887 10.4805C58.4653 10.4667 58.5439 10.4667 58.6204 10.4805C58.6946 10.4941 58.772 10.5279 59.0553 10.6653L59.4754 10.8691L59.4931 10.8776C60.0334 11.1397 60.4619 11.3475 60.8003 11.477C61.13 11.6031 61.4584 11.6907 61.7645 11.6155C62.1963 11.5095 62.5491 11.208 62.7119 10.8058C62.8275 10.5199 62.7778 10.1898 62.6891 9.85369C62.5977 9.50765 62.4368 9.06283 62.2336 8.50116V8.50111L62.2271 8.48317C62.0895 8.10256 62.0575 7.99809 62.0584 7.90653C62.0595 7.81185 62.0832 7.71873 62.1278 7.63449C62.171 7.55293 62.2481 7.47634 62.5487 7.20557L62.7218 7.04971L62.7363 7.03659C63.1331 6.67914 63.4502 6.3936 63.6723 6.15403C63.8913 5.91773 64.0742 5.66958 64.1153 5.3821C64.174 4.97077 64.0329 4.55624 63.7332 4.25968C63.5238 4.0524 63.2246 3.95864 62.9035 3.89529C62.578 3.83107 62.148 3.78473 61.6098 3.72672L61.5901 3.7246L61.4262 3.70694C61.0847 3.67013 60.9937 3.65647 60.9193 3.6251C60.8424 3.59275 60.7731 3.54582 60.7152 3.48709C60.6591 3.43014 60.6145 3.35203 60.4608 3.05397L60.2802 2.70366L60.2714 2.68662C60.0474 2.25195 59.8675 1.9029 59.7035 1.64611C59.5404 1.39071 59.3564 1.16474 59.0968 1.04535Z" fill="#FFC250"/>
</g>
</svg>
