<svg width="45" height="45" viewBox="0 0 45 45" fill="none" xmlns="http://www.w3.org/2000/svg">
<g id="Component 66">
<rect id="Rectangle 302" x="0.682846" y="0.384766" width="43.9024" height="44.2831" rx="21.9512" fill="#532181"/>
<path id="Path 872" fill-rule="evenodd" clip-rule="evenodd" d="M23.4638 17.5063C23.6574 17.3111 23.9712 17.3111 24.1647 17.5063L28.791 22.1727C28.884 22.2664 28.9362 22.3936 28.9362 22.5262C28.9362 22.6588 28.884 22.786 28.791 22.8797L24.1647 27.5462C23.9712 27.7414 23.6574 27.7414 23.4638 27.5462C23.2702 27.3509 23.2702 27.0343 23.4638 26.8391L27.2439 23.0261H16.5444C16.2706 23.0261 16.0487 22.8023 16.0487 22.5262C16.0487 22.2501 16.2706 22.0262 16.5444 22.0262H27.2439L23.4638 18.2134C23.2702 18.0181 23.2702 17.7016 23.4638 17.5063Z" fill="white"/>
</g>
</svg>
