<svg width="135" height="29" viewBox="0 0 135 29" fill="none" xmlns="http://www.w3.org/2000/svg">
<g id="Frame 179" clip-path="url(#clip0_741_8797)">
<g id="Clip path group">
<mask id="mask0_741_8797" style="mask-type:luminance" maskUnits="userSpaceOnUse" x="0" y="0" width="45" height="29">
<g id="clip0_431_458">
<path id="Vector" d="M44.7369 0H0V28.6518H44.7369V0Z" fill="white"/>
</g>
</mask>
<g mask="url(#mask0_741_8797)">
<g id="Group">
<path id="Vector_2" d="M6.00424 14.2757H10.0032C11.0406 11.8148 14.9624 2.64222 16.0807 0H44.7369C44.548 0.462871 38.7828 13.9093 38.5553 14.3953C38.0694 14.403 38.0269 14.403 37.595 14.4069C30.2257 14.3837 14.4842 14.484 14.1487 14.484C14.2259 14.4956 26.836 16.7675 33.1603 17.8977C31.5946 21.593 30.1022 25.1261 28.6097 28.6518H0C0.169677 28.2737 5.82685 14.673 6.00424 14.2757Z" fill="white"/>
</g>
</g>
</g>
<path id="Vector_3" d="M54.3597 23.3738C53.4342 23.3738 52.6224 23.2764 51.9243 23.0817C51.2259 22.8704 50.6415 22.5863 50.1707 22.2292C49.6997 21.8719 49.3426 21.4579 49.0989 20.9871C48.8718 20.5 48.7581 19.9723 48.7581 19.404C48.7581 19.3228 48.7581 19.2497 48.7581 19.1848C48.7742 19.1198 48.7825 19.0711 48.7825 19.0387H51.705C51.705 19.0711 51.705 19.1036 51.705 19.1361C51.705 19.1685 51.705 19.201 51.705 19.2335C51.7213 19.6719 51.8593 20.0291 52.119 20.305C52.3788 20.565 52.7198 20.7517 53.1419 20.8653C53.5642 20.979 54.0106 21.0357 54.4814 21.0357C54.9037 21.0357 55.3015 20.9951 55.6749 20.914C56.0646 20.8167 56.3811 20.6704 56.6247 20.4756C56.8845 20.2646 57.0144 19.9966 57.0144 19.6719C57.0144 19.2497 56.8521 18.925 56.5274 18.6977C56.2026 18.4704 55.7723 18.2836 55.2365 18.1375C54.7168 17.9914 54.1567 17.8371 53.5559 17.6748C53.0202 17.5286 52.4844 17.3663 51.9486 17.1877C51.4129 17.0091 50.9256 16.7818 50.4874 16.5057C50.0651 16.2297 49.716 15.8725 49.44 15.4341C49.1802 14.9957 49.0503 14.4518 49.0503 13.8023C49.0503 13.1691 49.1883 12.617 49.4643 12.1462C49.7403 11.6753 50.122 11.2856 50.6091 10.9771C51.0962 10.6524 51.6726 10.4089 52.3383 10.2465C53.0039 10.0841 53.7266 10.0029 54.5058 10.0029C55.2689 10.0029 55.959 10.0841 56.576 10.2465C57.2092 10.4089 57.7532 10.6443 58.2079 10.9528C58.6787 11.245 59.0358 11.6104 59.2795 12.0488C59.5392 12.4709 59.6692 12.9418 59.6692 13.4613C59.6692 13.575 59.6609 13.6887 59.6448 13.8023C59.6448 13.916 59.6448 13.9809 59.6448 13.9972H56.7465V13.8267C56.7465 13.5182 56.6491 13.2584 56.4543 13.0473C56.2757 12.82 56.0077 12.6414 55.6506 12.5115C55.3095 12.3816 54.8794 12.3167 54.3597 12.3167C53.97 12.3167 53.629 12.3491 53.3369 12.4141C53.0445 12.479 52.8011 12.5683 52.6061 12.682C52.4275 12.7956 52.2894 12.9255 52.1921 13.0717C52.0947 13.2178 52.046 13.3802 52.046 13.5588C52.046 13.8673 52.1677 14.1108 52.4114 14.2894C52.6548 14.468 52.9795 14.6223 53.3855 14.7522C53.8076 14.8821 54.2623 15.0201 54.7494 15.1662C55.3339 15.3286 55.9346 15.4991 56.5517 15.6777C57.1688 15.84 57.7369 16.0511 58.2566 16.3109C58.7924 16.5707 59.2225 16.936 59.5473 17.4069C59.8722 17.8777 60.0345 18.5028 60.0345 19.2822C60.0345 20.0291 59.8883 20.6704 59.5961 21.2062C59.3201 21.7258 58.9221 22.1479 58.4027 22.4727C57.8993 22.7813 57.2985 23.0084 56.6004 23.1547C55.9184 23.3008 55.1715 23.3738 54.3597 23.3738Z" fill="white"/>
<path id="Vector_4" d="M64.8572 23.0818L61.0335 10.271H64.1021L65.88 17.2365C65.9776 17.5938 66.0587 17.9509 66.1237 18.3082C66.1887 18.6491 66.2454 18.9414 66.2941 19.1849C66.3428 19.4285 66.3754 19.5746 66.3915 19.6233H66.5377C66.6027 19.3311 66.6675 19.0145 66.7325 18.6735C66.7975 18.3325 66.8542 18.024 66.9031 17.748C66.9679 17.4557 67.0085 17.2609 67.0248 17.1635L68.6808 10.271H71.8715L73.6006 17.1878C73.6656 17.4152 73.7225 17.6831 73.7712 17.9915C73.8362 18.2838 73.901 18.5761 73.9659 18.8683C74.0309 19.1606 74.0796 19.4123 74.112 19.6233H74.2583C74.2907 19.4285 74.3313 19.1931 74.38 18.917C74.445 18.641 74.51 18.3569 74.5748 18.0646C74.6397 17.7723 74.6967 17.5044 74.7454 17.2609L76.499 10.271H79.3484L75.5491 23.0818H72.4073L70.9458 16.9686C70.8811 16.6601 70.7998 16.311 70.7024 15.9214C70.6211 15.5317 70.54 15.142 70.4588 14.7523C70.394 14.3626 70.337 14.0298 70.2884 13.7538H70.1423C70.1423 13.8674 70.1179 14.0704 70.0693 14.3626C70.0204 14.6549 69.9473 15.0202 69.85 15.4586C69.7689 15.897 69.6552 16.4004 69.5089 16.9686L67.999 23.0818H64.8572Z" fill="white"/>
<path id="Vector_5" d="M81 8.29784V5.47266H83.9712V8.29784H81ZM81 23.0814V10.2706H83.9712V23.0814H81Z" fill="white"/>
<path id="Vector_6" d="M87.7452 23.0815V12.7061H85.8942V10.2706H87.7452V8.63883C87.7452 8.07054 87.8345 7.53473 88.0132 7.0314C88.2079 6.51182 88.5409 6.08966 89.0117 5.76494C89.4825 5.44019 90.1402 5.27783 90.9844 5.27783C91.228 5.27783 91.4715 5.29407 91.7151 5.32654C91.9749 5.35901 92.2185 5.40772 92.4457 5.47267C92.673 5.52138 92.868 5.57821 93.0303 5.64316V7.71334H91.8125C91.4554 7.71334 91.1793 7.81076 90.9844 8.0056C90.8059 8.1842 90.7166 8.4521 90.7166 8.80932V10.2706H93.0303V12.7061H90.7166V23.0815H87.7452Z" fill="white"/>
<path id="Vector_7" d="M97.9899 23.3736C97.1944 23.3736 96.5693 23.2195 96.1146 22.9109C95.6599 22.5861 95.3351 22.1803 95.1404 21.6932C94.9617 21.1899 94.8724 20.6784 94.8724 20.1587V12.7061H93.3381V10.2706H94.9454L95.4814 6.69043H97.8438V10.2706H100.06V12.7061H97.8438V19.8665C97.8438 20.2074 97.9331 20.4754 98.1116 20.6702C98.2903 20.8488 98.5582 20.9382 98.9154 20.9382H100.06V22.9839C99.8978 23.0489 99.6948 23.1058 99.4511 23.1545C99.224 23.2195 98.9803 23.2682 98.7206 23.3006C98.4609 23.3492 98.2172 23.3736 97.9899 23.3736Z" fill="white"/>
<path id="Vector_8" d="M102.872 23.0815V12.7061H101.021V10.2706H102.872V8.63883C102.872 8.07054 102.961 7.53473 103.14 7.0314C103.335 6.51182 103.668 6.08966 104.138 5.76494C104.609 5.44019 105.267 5.27783 106.111 5.27783C106.355 5.27783 106.598 5.29407 106.842 5.32654C107.102 5.35901 107.345 5.40772 107.572 5.47267C107.8 5.52138 107.995 5.57821 108.157 5.64316V7.71334H106.939C106.582 7.71334 106.306 7.81076 106.111 8.0056C105.933 8.1842 105.843 8.4521 105.843 8.80932V10.2706H108.157V12.7061H105.843V23.0815H102.872ZM109.74 8.29785V5.47267H112.711V8.29785H109.74ZM109.74 23.0815V10.2706H112.711V23.0815H109.74Z" fill="white"/>
<path id="Vector_9" d="M119.156 23.3738C118.798 23.3738 118.384 23.3251 117.914 23.2277C117.459 23.1464 117.012 22.984 116.574 22.7406C116.152 22.497 115.803 22.1398 115.527 21.6689C115.251 21.1818 115.113 20.5486 115.113 19.7693C115.113 18.8925 115.308 18.1699 115.697 17.6017C116.087 17.0171 116.631 16.5625 117.329 16.2378C118.043 15.8968 118.888 15.6614 119.862 15.5315C120.852 15.3854 121.932 15.3123 123.101 15.3123V14.265C123.101 13.8916 123.044 13.5587 122.931 13.2665C122.817 12.9742 122.606 12.7469 122.297 12.5845C122.005 12.4059 121.559 12.3166 120.958 12.3166C120.357 12.3166 119.886 12.3897 119.545 12.5358C119.204 12.6819 118.969 12.8605 118.839 13.0716C118.709 13.2827 118.644 13.5019 118.644 13.7292V14.0702H115.77C115.754 13.989 115.746 13.9078 115.746 13.8266C115.746 13.7454 115.746 13.648 115.746 13.5344C115.746 12.8037 115.965 12.1705 116.403 11.6347C116.842 11.0989 117.451 10.6929 118.23 10.4169C119.009 10.1247 119.911 9.97852 120.933 9.97852C122.103 9.97852 123.06 10.1409 123.807 10.4656C124.571 10.7904 125.139 11.2531 125.512 11.8539C125.886 12.4546 126.073 13.1853 126.073 14.0458V20.0859C126.073 20.3943 126.162 20.6136 126.34 20.7434C126.519 20.8733 126.714 20.9383 126.925 20.9383H127.704V22.984C127.542 23.049 127.306 23.1221 126.998 23.2033C126.689 23.3007 126.308 23.3494 125.853 23.3494C125.431 23.3494 125.049 23.2764 124.709 23.1303C124.384 23.0003 124.108 22.8056 123.881 22.5456C123.653 22.2859 123.491 21.9775 123.393 21.6202H123.247C122.971 21.9612 122.638 22.2696 122.249 22.5456C121.875 22.8056 121.429 23.0084 120.909 23.1547C120.406 23.3007 119.821 23.3738 119.156 23.3738ZM120.057 20.9383C120.544 20.9383 120.974 20.8653 121.348 20.719C121.737 20.573 122.054 20.37 122.297 20.1102C122.557 19.8504 122.752 19.5338 122.882 19.1604C123.028 18.7869 123.101 18.381 123.101 17.9426V17.3581C122.208 17.3581 121.38 17.4149 120.617 17.5286C119.87 17.6423 119.269 17.8533 118.815 18.1618C118.376 18.4703 118.157 18.9087 118.157 19.477C118.157 19.7693 118.222 20.0291 118.352 20.2563C118.498 20.4675 118.709 20.6379 118.985 20.7679C119.277 20.8814 119.635 20.9383 120.057 20.9383Z" fill="white"/>
<path id="Vector_10" d="M132.786 23.3736C131.991 23.3736 131.365 23.2195 130.911 22.9109C130.456 22.5861 130.132 22.1803 129.937 21.6932C129.758 21.1899 129.669 20.6784 129.669 20.1587V12.7061H128.135V10.2706H129.742L130.278 6.69043H132.64V10.2706H134.856V12.7061H132.64V19.8665C132.64 20.2074 132.729 20.4754 132.908 20.6702C133.087 20.8488 133.354 20.9382 133.712 20.9382H134.856V22.9839C134.694 23.0489 134.491 23.1058 134.248 23.1545C134.02 23.2195 133.777 23.2682 133.517 23.3006C133.257 23.3492 133.014 23.3736 132.786 23.3736Z" fill="white"/>
</g>
<defs>
<clipPath id="clip0_741_8797">
<rect width="135" height="28.7705" fill="white"/>
</clipPath>
</defs>
</svg>
