<svg width="135" height="30" viewBox="0 0 135 30" fill="none" xmlns="http://www.w3.org/2000/svg">
<g id="Frame 179" clip-path="url(#clip0_741_8741)">
<g id="Clip path group">
<mask id="mask0_741_8741" style="mask-type:luminance" maskUnits="userSpaceOnUse" x="0" y="0" width="45" height="30">
<g id="clip0_431_458">
<path id="Vector" d="M44.7369 0.770477H0V29.4223H44.7369V0.770477Z" fill="white"/>
</g>
</mask>
<g mask="url(#mask0_741_8741)">
<g id="Group">
<path id="Vector_2" d="M6.00424 15.0462H10.0032C11.0406 12.5852 14.9624 3.41269 16.0807 0.770477H44.7369C44.548 1.23335 38.7828 14.6797 38.5553 15.1658C38.0694 15.1735 38.0269 15.1735 37.595 15.1773C30.2257 15.1542 14.4842 15.2545 14.1487 15.2545C14.2259 15.266 26.836 17.538 33.1603 18.6681C31.5946 22.3634 30.1022 25.8966 28.6097 29.4223H0C0.169677 29.0442 5.82685 15.4435 6.00424 15.0462Z" fill="#37055E"/>
</g>
</g>
</g>
<path id="Vector_3" d="M54.3597 24.1442C53.4342 24.1442 52.6224 24.0468 51.9243 23.8521C51.2259 23.6408 50.6415 23.3567 50.1707 22.9996C49.6997 22.6423 49.3426 22.2282 49.0989 21.7574C48.8718 21.2704 48.7581 20.7427 48.7581 20.1744C48.7581 20.0932 48.7581 20.0201 48.7581 19.9552C48.7742 19.8902 48.7825 19.8415 48.7825 19.809H51.705C51.705 19.8415 51.705 19.874 51.705 19.9065C51.705 19.9389 51.705 19.9714 51.705 20.0039C51.7213 20.4423 51.8593 20.7995 52.119 21.0754C52.3788 21.3353 52.7198 21.5221 53.1419 21.6357C53.5642 21.7494 54.0106 21.8061 54.4814 21.8061C54.9037 21.8061 55.3015 21.7655 55.6749 21.6844C56.0646 21.587 56.3811 21.4408 56.6247 21.246C56.8845 21.035 57.0144 20.767 57.0144 20.4423C57.0144 20.0201 56.8521 19.6954 56.5274 19.4681C56.2026 19.2408 55.7723 19.054 55.2365 18.9079C54.7168 18.7618 54.1567 18.6075 53.5559 18.4452C53.0202 18.299 52.4844 18.1367 51.9486 17.9581C51.4129 17.7795 50.9256 17.5521 50.4874 17.2761C50.0651 17.0001 49.716 16.6429 49.44 16.2045C49.1802 15.7661 49.0503 15.2222 49.0503 14.5727C49.0503 13.9395 49.1883 13.3874 49.4643 12.9166C49.7403 12.4457 50.122 12.056 50.6091 11.7475C51.0962 11.4228 51.6726 11.1792 52.3383 11.0169C53.0039 10.8545 53.7266 10.7733 54.5058 10.7733C55.2689 10.7733 55.959 10.8545 56.576 11.0169C57.2092 11.1792 57.7532 11.4147 58.2079 11.7232C58.6787 12.0154 59.0358 12.3807 59.2795 12.8191C59.5392 13.2413 59.6692 13.7122 59.6692 14.2317C59.6692 14.3454 59.6609 14.4591 59.6448 14.5727C59.6448 14.6864 59.6448 14.7513 59.6448 14.7675H56.7465V14.5971C56.7465 14.2886 56.6491 14.0288 56.4543 13.8177C56.2757 13.5904 56.0077 13.4118 55.6506 13.2819C55.3095 13.152 54.8794 13.087 54.3597 13.087C53.97 13.087 53.629 13.1195 53.3369 13.1845C53.0445 13.2494 52.8011 13.3387 52.6061 13.4524C52.4275 13.566 52.2894 13.6959 52.1921 13.8421C52.0947 13.9882 52.046 14.1505 52.046 14.3291C52.046 14.6377 52.1677 14.8812 52.4114 15.0598C52.6548 15.2384 52.9795 15.3927 53.3855 15.5226C53.8076 15.6524 54.2623 15.7905 54.7494 15.9366C55.3339 16.099 55.9346 16.2694 56.5517 16.448C57.1688 16.6104 57.7369 16.8215 58.2566 17.0813C58.7924 17.3411 59.2225 17.7064 59.5473 18.1773C59.8722 18.6481 60.0345 19.2732 60.0345 20.0526C60.0345 20.7995 59.8883 21.4408 59.5961 21.9765C59.3201 22.4962 58.9221 22.9183 58.4027 23.2431C57.8993 23.5517 57.2985 23.7788 56.6004 23.9251C55.9184 24.0712 55.1715 24.1442 54.3597 24.1442Z" fill="black"/>
<path id="Vector_4" d="M64.8572 23.8521L61.0335 11.0412H64.1021L65.88 18.0068C65.9776 18.364 66.0587 18.7212 66.1237 19.0784C66.1887 19.4194 66.2454 19.7116 66.2941 19.9552C66.3428 20.1987 66.3754 20.3449 66.3915 20.3936H66.5377C66.6027 20.1013 66.6675 19.7847 66.7325 19.4437C66.7975 19.1027 66.8542 18.7943 66.9031 18.5182C66.9679 18.226 67.0085 18.0311 67.0248 17.9337L68.6808 11.0412H71.8715L73.6006 17.9581C73.6656 18.1854 73.7225 18.4533 73.7712 18.7618C73.8362 19.054 73.901 19.3463 73.9659 19.6386C74.0309 19.9308 74.0796 20.1825 74.112 20.3936H74.2583C74.2907 20.1987 74.3313 19.9633 74.38 19.6873C74.445 19.4112 74.51 19.1271 74.5748 18.8349C74.6397 18.5426 74.6967 18.2747 74.7454 18.0311L76.499 11.0412H79.3484L75.5491 23.8521H72.4073L70.9458 17.7389C70.8811 17.4304 70.7998 17.0813 70.7024 16.6916C70.6211 16.3019 70.54 15.9122 70.4588 15.5226C70.394 15.1329 70.337 14.8 70.2884 14.524H70.1423C70.1423 14.6377 70.1179 14.8406 70.0693 15.1329C70.0204 15.4251 69.9473 15.7905 69.85 16.2289C69.7689 16.6672 69.6552 17.1706 69.5089 17.7389L67.999 23.8521H64.8572Z" fill="black"/>
<path id="Vector_5" d="M81 9.06844V6.24326H83.9712V9.06844H81ZM81 23.852V11.0412H83.9712V23.852H81Z" fill="black"/>
<path id="Vector_6" d="M87.7452 23.8521V13.4767H85.8942V11.0412H87.7452V9.40943C87.7452 8.84114 87.8345 8.30533 88.0132 7.802C88.2079 7.28242 88.5409 6.86026 89.0117 6.53554C89.4825 6.21079 90.1402 6.04843 90.9844 6.04843C91.228 6.04843 91.4715 6.06467 91.7151 6.09714C91.9749 6.12961 92.2185 6.17832 92.4457 6.24327C92.673 6.29197 92.868 6.34881 93.0303 6.41376V8.48394H91.8125C91.4554 8.48394 91.1793 8.58136 90.9844 8.7762C90.8059 8.95479 90.7166 9.2227 90.7166 9.57992V11.0412H93.0303V13.4767H90.7166V23.8521H87.7452Z" fill="black"/>
<path id="Vector_7" d="M97.9899 24.1442C97.1944 24.1442 96.5693 23.9901 96.1146 23.6814C95.6599 23.3567 95.3352 22.9509 95.1404 22.4638C94.9618 21.9605 94.8724 21.449 94.8724 20.9293V13.4767H93.3381V11.0412H94.9455L95.4814 7.46103H97.8438V11.0412H100.06V13.4767H97.8438V20.6371C97.8438 20.978 97.9332 21.246 98.1116 21.4408C98.2903 21.6194 98.5583 21.7088 98.9154 21.7088H100.06V23.7545C99.8978 23.8195 99.6948 23.8764 99.4512 23.9251C99.224 23.9901 98.9804 24.0388 98.7206 24.0712C98.4609 24.1198 98.2172 24.1442 97.9899 24.1442Z" fill="black"/>
<path id="Vector_8" d="M102.872 23.8521V13.4767H101.021V11.0412H102.872V9.40943C102.872 8.84114 102.961 8.30533 103.14 7.802C103.335 7.28242 103.667 6.86026 104.138 6.53554C104.609 6.21079 105.267 6.04843 106.111 6.04843C106.355 6.04843 106.598 6.06467 106.842 6.09714C107.102 6.12961 107.345 6.17832 107.572 6.24327C107.8 6.29197 107.995 6.34881 108.157 6.41376V8.48394H106.939C106.582 8.48394 106.306 8.58136 106.111 8.7762C105.932 8.95479 105.843 9.2227 105.843 9.57992V11.0412H108.157V13.4767H105.843V23.8521H102.872ZM109.74 9.06845V6.24327H112.711V9.06845H109.74ZM109.74 23.8521V11.0412H112.711V23.8521H109.74Z" fill="black"/>
<path id="Vector_9" d="M119.156 24.1442C118.798 24.1442 118.384 24.0955 117.914 23.9981C117.459 23.9169 117.012 23.7545 116.574 23.5111C116.152 23.2674 115.803 22.9103 115.527 22.4393C115.251 21.9522 115.113 21.3191 115.113 20.5397C115.113 19.6629 115.308 18.9404 115.697 18.3721C116.087 17.7876 116.631 17.333 117.329 17.0082C118.043 16.6673 118.888 16.4318 119.862 16.3019C120.852 16.1558 121.932 16.0827 123.101 16.0827V15.0355C123.101 14.662 123.044 14.3292 122.931 14.0369C122.817 13.7446 122.606 13.5173 122.297 13.355C122.005 13.1764 121.559 13.0871 120.958 13.0871C120.357 13.0871 119.886 13.1601 119.545 13.3063C119.204 13.4524 118.969 13.631 118.839 13.8421C118.709 14.0531 118.644 14.2723 118.644 14.4996V14.8406H115.77C115.754 14.7594 115.746 14.6782 115.746 14.5971C115.746 14.5159 115.746 14.4185 115.746 14.3048C115.746 13.5742 115.965 12.9409 116.403 12.4051C116.842 11.8693 117.451 11.4634 118.23 11.1874C119.009 10.8951 119.911 10.749 120.933 10.749C122.103 10.749 123.06 10.9113 123.808 11.2361C124.571 11.5608 125.139 12.0236 125.512 12.6243C125.886 13.2251 126.073 13.9557 126.073 14.8163V20.8563C126.073 21.1647 126.162 21.384 126.34 21.5138C126.519 21.6438 126.714 21.7088 126.925 21.7088H127.704V23.7545C127.542 23.8195 127.306 23.8925 126.998 23.9738C126.689 24.0712 126.308 24.1199 125.853 24.1199C125.431 24.1199 125.049 24.0468 124.709 23.9008C124.384 23.7708 124.108 23.576 123.881 23.3161C123.653 23.0564 123.491 22.7479 123.393 22.3906H123.247C122.971 22.7316 122.638 23.0401 122.249 23.3161C121.875 23.576 121.429 23.7788 120.909 23.9251C120.406 24.0712 119.821 24.1442 119.156 24.1442ZM120.057 21.7088C120.544 21.7088 120.974 21.6357 121.348 21.4895C121.737 21.3434 122.054 21.1404 122.297 20.8807C122.557 20.6209 122.752 20.3043 122.882 19.9308C123.028 19.5574 123.101 19.1515 123.101 18.7131V18.1286C122.208 18.1286 121.38 18.1854 120.617 18.299C119.87 18.4127 119.269 18.6238 118.815 18.9323C118.376 19.2408 118.157 19.6792 118.157 20.2475C118.157 20.5397 118.222 20.7995 118.352 21.0267C118.498 21.238 118.709 21.4084 118.985 21.5384C119.277 21.6518 119.635 21.7088 120.057 21.7088Z" fill="black"/>
<path id="Vector_10" d="M132.786 24.1442C131.991 24.1442 131.365 23.9901 130.911 23.6814C130.456 23.3567 130.132 22.9509 129.937 22.4638C129.758 21.9605 129.669 21.449 129.669 20.9293V13.4767H128.135V11.0412H129.742L130.278 7.46103H132.64V11.0412H134.856V13.4767H132.64V20.6371C132.64 20.978 132.729 21.246 132.908 21.4408C133.087 21.6194 133.354 21.7088 133.712 21.7088H134.856V23.7545C134.694 23.8195 134.491 23.8764 134.248 23.9251C134.02 23.9901 133.777 24.0388 133.517 24.0712C133.257 24.1198 133.014 24.1442 132.786 24.1442Z" fill="black"/>
</g>
<defs>
<clipPath id="clip0_741_8741">
<rect width="135" height="28.7705" fill="white" transform="translate(0 0.770477)"/>
</clipPath>
</defs>
</svg>
