<svg width="27" height="27" viewBox="0 0 27 27" fill="none" xmlns="http://www.w3.org/2000/svg">
<g id="settings-01">
<path id="Vector" d="M23.7028 8.14395L23.168 7.21584C22.7635 6.51392 22.5614 6.16297 22.2172 6.02302C21.8731 5.88307 21.4839 5.9935 20.7057 6.21436L19.3836 6.58675C18.8867 6.70134 18.3653 6.63634 17.9117 6.40322L17.5467 6.19263C17.1576 5.94343 16.8583 5.57602 16.6926 5.14416L16.3309 4.06351C16.0929 3.34839 15.974 2.99082 15.6907 2.78631C15.4076 2.58179 15.0314 2.58179 14.2791 2.58179H13.0712C12.3189 2.58179 11.9428 2.58179 11.6595 2.78631C11.3764 2.99082 11.2574 3.34839 11.0195 4.06351L10.6577 5.14416C10.492 5.57602 10.1928 5.94343 9.8037 6.19263L9.43869 6.40322C8.98498 6.63634 8.46367 6.70134 7.96677 6.58675L6.64466 6.21436C5.86635 5.9935 5.47721 5.88307 5.13311 6.02302C4.78902 6.16297 4.5868 6.51392 4.18233 7.21584L3.64755 8.14395C3.26842 8.8019 3.07886 9.13088 3.11565 9.48108C3.15244 9.83129 3.40621 10.1135 3.91375 10.6779L5.03087 11.9269C5.3039 12.2725 5.49775 12.8749 5.49775 13.4165C5.49775 13.9584 5.30397 14.5606 5.0309 14.9063L3.91375 16.1553C3.40621 16.7198 3.15245 17.0019 3.11565 17.3522C3.07886 17.7024 3.26842 18.0313 3.64755 18.6892L4.18232 19.6173C4.58678 20.3192 4.78902 20.6703 5.13311 20.8101C5.47721 20.9501 5.86636 20.8397 6.64469 20.6188L7.96672 20.2464C8.46371 20.1318 8.98513 20.1969 9.43889 20.4301L9.80384 20.6407C10.1928 20.8899 10.492 21.2572 10.6576 21.6891L11.0195 22.7698C11.2574 23.4849 11.3764 23.8425 11.6595 24.0471C11.9428 24.2515 12.3189 24.2515 13.0712 24.2515H14.2791C15.0314 24.2515 15.4076 24.2515 15.6907 24.0471C15.974 23.8425 16.0929 23.4849 16.3309 22.7698L16.6928 21.6891C16.8583 21.2572 17.1575 20.8899 17.5465 20.6407L17.9115 20.4301C18.3652 20.1969 18.8866 20.1318 19.3836 20.2464L20.7057 20.6188C21.4839 20.8397 21.8731 20.9501 22.2172 20.8101C22.5614 20.6703 22.7635 20.3192 23.168 19.6173L23.7028 18.6892C24.0819 18.0313 24.2714 17.7024 24.2347 17.3522C24.1979 17.0019 23.9441 16.7198 23.4366 16.1553L22.3194 14.9063C22.0464 14.5606 21.8525 13.9584 21.8525 13.4165C21.8525 12.8749 22.0465 12.2725 22.3194 11.9269L23.4366 10.6779C23.9441 10.1135 24.1979 9.83129 24.2347 9.48108C24.2714 9.13088 24.0819 8.8019 23.7028 8.14395Z" stroke="#532181" stroke-width="1.62523" stroke-linecap="round"/>
<path id="Vector_2" d="M17.4199 13.4082C17.4199 15.5026 15.7221 17.2004 13.6277 17.2004C11.5333 17.2004 9.83554 15.5026 9.83554 13.4082C9.83554 11.3138 11.5333 9.61597 13.6277 9.61597C15.7221 9.61597 17.4199 11.3138 17.4199 13.4082Z" stroke="#532181" stroke-width="1.62523"/>
</g>
</svg>
