<svg width="134" height="87" viewBox="0 0 134 87" fill="none" xmlns="http://www.w3.org/2000/svg">
<path id="Vector" d="M61.5113 82.8205C62.3857 82.6148 63.171 82.765 63.9835 83.0668C70.7616 85.5874 77.7557 86.8024 84.9972 86.7033C93.5742 86.5861 102.017 85.7921 110.192 82.9284C114.482 81.427 118.699 79.7853 122.741 77.7059C123.2 77.4696 123.695 76.9592 124.211 77.3326C124.871 77.8092 124.342 78.4612 124.211 79.0174C123.874 80.4379 123.4 81.829 123.147 83.2645C122.957 84.3457 123.68 85.518 124.461 85.7141C125.53 85.9848 125.95 85.16 126.423 84.4639C126.64 84.1481 126.852 83.824 127.038 83.4895C129.138 79.7326 131.217 75.9642 133.336 72.2157C134.127 70.8126 134.252 69.4363 133.307 68.0965C132.381 66.7832 131.035 66.6919 129.582 66.957C124.512 67.8739 119.438 68.7646 114.365 69.6791C113.686 69.8015 113.006 69.9662 112.364 70.2084C111.693 70.4616 111.117 70.9053 111.166 71.724C111.215 72.5635 111.862 72.8801 112.576 73.007C113.254 73.1285 113.955 73.1255 114.636 73.2343C115.363 73.3469 116.156 73.1227 116.867 73.6113C116.528 74.3854 115.801 74.4714 115.199 74.7364C107.009 78.3368 98.4181 80.2465 89.5022 80.6866C83.9619 80.9604 78.4286 80.9561 72.9913 79.5987C72.5185 79.4794 71.8595 79.5952 71.7411 78.7381C74.0147 77.2151 76.2143 75.549 78.2945 73.7209C90.2218 63.2342 88.8299 45.7173 78.4778 36.8224C76.3098 34.9599 74.1006 33.1349 71.5682 31.8375C64.9598 28.456 57.9918 27.7026 51.0058 30.2706C37.7544 35.1475 34.9828 50.8128 38.2376 59.6725C40.6917 66.3601 45.1916 71.5627 50.7924 75.863C51.6865 76.5502 52.7554 77.0223 53.5772 77.9933C53.0119 78.4622 52.615 78.4466 52.2389 78.4632C46.5848 78.7064 41.0107 78.1589 35.59 76.5097C23.408 72.8003 12.6222 66.5226 3.05889 58.1985C-3.23896 52.7183 -8.41561 46.1815 -13.0295 39.2455C-19.0291 30.2127 -23.1544 20.4299 -24.302 9.5416C-24.5801 6.91423 -24.6617 4.30859 -23.1361 1.95772C-22.8441 1.50797 -22.3974 1.01529 -22.96 0.548111C-23.5649 0.0464443 -24.1116 0.484956 -24.5796 0.909286C-25.1049 1.38305 -25.4244 1.99721 -25.7233 2.6257C-26.4275 4.10946 -26.7572 5.68515 -26.8096 7.31315C-27.0512 14.8176 -25.5899 22.0392 -22.6371 28.8896C-16.0583 44.1387 -6.43053 57.1595 6.741 67.3422C16.1345 74.6079 26.458 80.1897 38.1976 82.7304C45.9494 84.4106 53.7354 84.6616 61.5113 82.8205ZM61.5958 75.5128C55.0567 72.182 49.3817 67.9042 45.2885 61.6535C40.8759 54.9159 41.4963 45.0567 46.9075 39.1774C49.939 35.8842 53.7923 34.296 58.1805 34.1728C62.9759 34.0393 67.4724 35.1511 71.396 38.1081C74.4877 40.4388 77.3598 42.9535 79.1357 46.4962C79.9016 48.0248 80.3698 49.6372 80.5594 51.0561C81.8742 58.0153 80.166 63.7926 75.3023 68.6044C72.379 71.4961 69.1021 73.8618 65.3381 75.5452C64.0688 76.1139 62.8906 76.1699 61.5958 75.5128Z" fill="white"/>
</svg>
