<svg width="27" height="27" viewBox="0 0 27 27" fill="none" xmlns="http://www.w3.org/2000/svg">
<g id="view">
<path id="Vector" d="M23.9414 12.5568C24.2708 13.0186 24.4355 13.2496 24.4355 13.5915C24.4355 13.9333 24.2708 14.1643 23.9414 14.6262C22.4613 16.7017 18.6813 21.1759 13.6006 21.1759C8.51994 21.1759 4.74 16.7017 3.25989 14.6262C2.93048 14.1643 2.76578 13.9333 2.76578 13.5915C2.76578 13.2496 2.93048 13.0186 3.25989 12.5568C4.74 10.4813 8.51994 6.00708 13.6006 6.00708C18.6813 6.00708 22.4613 10.4813 23.9414 12.5568Z" stroke="#532181" stroke-width="1.62523"/>
<path id="Vector_2" d="M16.8545 13.591C16.8545 11.7958 15.3993 10.3406 13.6041 10.3406C11.8088 10.3406 10.3536 11.7958 10.3536 13.591C10.3536 15.3863 11.8088 16.8415 13.6041 16.8415C15.3993 16.8415 16.8545 15.3863 16.8545 13.591Z" stroke="#532181" stroke-width="1.62523"/>
</g>
</svg>
