<svg width="89" height="24" viewBox="0 0 89 24" fill="none" xmlns="http://www.w3.org/2000/svg">
<g id="Logo">
<g id="Vector">
<path fill-rule="evenodd" clip-rule="evenodd" d="M25.3252 1.01297H27.2272C28.8091 1.01297 29.7399 1.9842 29.7399 3.6581C29.7399 5.33568 28.8091 6.32162 27.2272 6.32162H25.3252V1.01297ZM26.1493 1.723V5.60792H27.1499C28.2757 5.60792 28.9011 4.91996 28.9011 3.66545C28.9011 2.41463 28.2757 1.723 27.1499 1.723H26.1493ZM32.6752 6.36945C31.5199 6.36945 30.7842 5.58217 30.7842 4.32398C30.7842 3.06948 31.5237 2.27483 32.6752 2.27483C33.8266 2.27483 34.5624 3.0658 34.5624 4.32398C34.5624 5.58217 33.8304 6.36945 32.6752 6.36945ZM32.6752 5.70725C33.3521 5.70725 33.753 5.19588 33.753 4.32398C33.753 3.45208 33.3521 2.93703 32.6752 2.93703C31.9983 2.93703 31.5935 3.45576 31.5935 4.32398C31.5935 5.19588 31.9983 5.70725 32.6752 5.70725ZM40.9559 2.32633L39.8559 6.32162H39.0318L38.1819 3.31228H38.1636L37.3211 6.32162H36.5007L35.397 2.32633H36.1917L36.9349 5.49019H36.9496L37.7957 2.32633H38.5609L39.4107 5.49019H39.4254L40.1686 2.32633H40.9559ZM41.9818 6.32162V2.32633H42.7433V2.99958H42.758C43.0008 2.52867 43.4018 2.28219 44.0199 2.28219C44.9028 2.28219 45.4069 2.84138 45.4069 3.76111V6.32162H44.6085V3.91195C44.6085 3.30492 44.3289 2.96646 43.7439 2.96646C43.1406 2.96646 42.7801 3.38586 42.7801 4.01495V6.32162H41.9818ZM46.7601 6.32162V0.773834H47.5585V6.32162H46.7601ZM50.6409 6.36945C49.4857 6.36945 48.75 5.58217 48.75 4.32398C48.75 3.06948 49.4894 2.27483 50.6409 2.27483C51.7924 2.27483 52.5282 3.0658 52.5282 4.32398C52.5282 5.58217 51.7961 6.36945 50.6409 6.36945ZM50.6409 5.70725C51.3179 5.70725 51.7189 5.19588 51.7189 4.32398C51.7189 3.45208 51.3179 2.93703 50.6409 2.93703C49.964 2.93703 49.5593 3.45576 49.5593 4.32398C49.5593 5.19588 49.964 5.70725 50.6409 5.70725ZM55.0772 5.72564C55.6694 5.72564 56.1183 5.34671 56.1183 4.82063V4.50792L55.1471 4.57414C54.6026 4.60726 54.3193 4.8096 54.3193 5.16277C54.3193 5.50491 54.6173 5.72564 55.0772 5.72564ZM54.8638 6.3621C54.0655 6.3621 53.5136 5.8912 53.5136 5.17749C53.5136 4.4785 54.0544 4.07381 55.0404 4.01127L56.1183 3.94873V3.6397C56.1183 3.18352 55.8129 2.93335 55.2795 2.93335C54.8454 2.93335 54.529 3.15776 54.4591 3.50358H53.7123C53.7343 2.79723 54.4039 2.27483 55.3016 2.27483C56.2765 2.27483 56.9056 2.78987 56.9056 3.58084V6.32162H56.144V5.65575H56.1256C55.9049 6.08986 55.4083 6.3621 54.8638 6.3621ZM59.7341 6.3621C58.7335 6.3621 58.0492 5.55641 58.0492 4.3203C58.0492 3.09154 58.7335 2.28587 59.7268 2.28587C60.3007 2.28587 60.7569 2.54707 60.9849 2.98854H61.0034V0.773834H61.798V6.32162H61.0255V5.64471H61.0108C60.7753 6.09722 60.3191 6.3621 59.7341 6.3621ZM59.9365 2.96278C59.2927 2.96278 58.8659 3.4999 58.8659 4.32398C58.8659 5.15173 59.289 5.68517 59.9365 5.68517C60.5766 5.68517 61.007 5.1407 61.007 4.32398C61.007 3.51094 60.5766 2.96278 59.9365 2.96278ZM67.1351 6.36945C65.9799 6.36945 65.2441 5.58217 65.2441 4.32398C65.2441 3.06948 65.9835 2.27483 67.1351 2.27483C68.2866 2.27483 69.0224 3.0658 69.0224 4.32398C69.0224 5.58217 68.2902 6.36945 67.1351 6.36945ZM67.1351 5.70725C67.812 5.70725 68.213 5.19588 68.213 4.32398C68.213 3.45208 67.812 2.93703 67.1351 2.93703C66.4581 2.93703 66.0535 3.45576 66.0535 4.32398C66.0535 5.19588 66.4581 5.70725 67.1351 5.70725ZM70.1844 6.32162V2.32633H70.9459V2.99958H70.9606C71.2035 2.52867 71.6044 2.28219 72.2225 2.28219C73.1054 2.28219 73.6095 2.84138 73.6095 3.76111V6.32162H72.8112V3.91195C72.8112 3.30492 72.5315 2.96646 71.9466 2.96646C71.3432 2.96646 70.9827 3.38586 70.9827 4.01495V6.32162H70.1844ZM77.4272 1.42868H78.2218V2.32633H78.987V2.95542H78.2218V5.18852C78.2218 5.53434 78.3763 5.69621 78.7111 5.69621C78.7957 5.69621 78.9319 5.68517 78.9833 5.67782V6.30691C78.8951 6.32898 78.7074 6.34738 78.5345 6.34738C77.7362 6.34738 77.4272 6.04203 77.4272 5.26946V2.95542H76.8753V2.32633H77.4272V1.42868ZM80.2152 6.32162V0.773834H81.0062V2.99958H81.0246C81.2637 2.52867 81.6758 2.28219 82.2864 2.28219C83.1657 2.28219 83.6918 2.86713 83.6918 3.76847V6.32162H82.8935V3.92297C82.8935 3.327 82.5955 2.96646 82.0105 2.96646C81.3888 2.96646 81.0135 3.39322 81.0135 4.03335V6.32162H80.2152ZM86.6749 2.926C86.101 2.926 85.6853 3.34539 85.6411 3.95977H87.668C87.6498 3.33803 87.2557 2.926 86.6749 2.926ZM87.6646 5.15173H88.4256C88.3117 5.86912 87.6098 6.36945 86.7117 6.36945C85.5528 6.36945 84.8318 5.58953 84.8318 4.3387C84.8318 3.08786 85.5602 2.27483 86.6786 2.27483C87.775 2.27483 88.4665 3.03636 88.4665 4.24672V4.52632H85.6374V4.57414C85.6374 5.26578 86.0716 5.72197 86.7264 5.72197C87.1896 5.72197 87.5541 5.50123 87.6646 5.15173Z" fill="#F9F9F9"/>
<path fill-rule="evenodd" clip-rule="evenodd" d="M31.3651 21.4394L30.4262 18.6655H26.5144L25.5755 21.4394H23.9183L27.6239 11.176H29.3451L33.0507 21.4394H31.3651ZM28.4489 12.883L26.9198 17.3853H30.0208L28.4916 12.883H28.4489ZM38.1822 13.637C40.1523 13.637 41.4468 15.1804 41.4468 17.5773C41.4468 19.9671 40.1595 21.5177 38.2178 21.5177C37.1082 21.5177 36.2333 21.0269 35.771 20.1734H35.7426V24H34.1992V13.7152H35.6857V14.9955H35.7212C36.1551 14.1633 37.1082 13.637 38.1822 13.637ZM37.791 20.2089C39.0428 20.2089 39.8678 19.1777 39.8678 17.5773C39.8678 15.9841 39.0428 14.9456 37.791 14.9456C36.5676 14.9456 35.7355 16.0054 35.7283 17.5773C35.7355 19.1563 36.5605 20.2089 37.791 20.2089ZM46.8343 13.637C48.8045 13.637 50.099 15.1804 50.099 17.5773C50.099 19.9671 48.8116 21.5177 46.8698 21.5177C45.7603 21.5177 44.8855 21.0269 44.4232 20.1734H44.3947V24H42.8512V13.7152H44.3378V14.9955H44.3733C44.8072 14.1633 45.7603 13.637 46.8343 13.637ZM46.4431 20.2089C47.695 20.2089 48.52 19.1777 48.52 17.5773C48.52 15.9841 47.695 14.9456 46.4431 14.9456C45.2198 14.9456 44.3876 16.0054 44.3805 17.5773C44.3876 19.1563 45.2126 20.2089 46.4431 20.2089ZM54.7358 18.5802H56.3076C56.4215 19.5973 57.4101 20.2658 58.7615 20.2658C60.056 20.2658 60.9877 19.5973 60.9877 18.6798C60.9877 17.8831 60.4258 17.4066 59.0957 17.0794L57.7657 16.7594C55.8809 16.3041 55.0061 15.4222 55.0061 13.9926C55.0061 12.2216 56.5495 11.0053 58.7402 11.0053C60.9095 11.0053 62.396 12.2216 62.4458 13.9926H60.8952C60.8028 12.9683 59.9564 12.3496 58.7188 12.3496C57.4812 12.3496 56.6348 12.9755 56.6348 13.8859C56.6348 14.6114 57.1754 15.0381 58.4984 15.3653L59.6292 15.6427C61.7345 16.1406 62.6094 16.9869 62.6094 18.4877C62.6094 20.4081 61.0802 21.6102 58.6477 21.6102C56.3716 21.6102 54.8353 20.4366 54.7358 18.5802ZM64.5188 11.9797H66.0551V13.7152H67.5345V14.9315H66.0551V19.2487C66.0551 19.9174 66.3538 20.2303 67.0011 20.2303C67.1647 20.2303 67.4278 20.2089 67.5274 20.1948V21.411C67.3567 21.4537 66.9939 21.4892 66.6597 21.4892C65.1162 21.4892 64.5188 20.8989 64.5188 19.4052V14.9315H63.4519V13.7152H64.5188V11.9797ZM72.1397 21.5319C69.9063 21.5319 68.4838 20.0098 68.4838 17.5773C68.4838 15.152 69.9134 13.6156 72.1397 13.6156C74.3658 13.6156 75.7883 15.1448 75.7883 17.5773C75.7883 20.0098 74.3729 21.5319 72.1397 21.5319ZM72.1397 20.2517C73.4483 20.2517 74.2236 19.263 74.2236 17.5773C74.2236 15.8917 73.4483 14.8959 72.1397 14.8959C70.8309 14.8959 70.0485 15.8988 70.0485 17.5773C70.0485 19.263 70.8309 20.2517 72.1397 20.2517ZM77.1999 21.4394V13.7152H78.6722V15.0168H78.7007C78.9425 14.1562 79.6537 13.637 80.5642 13.637C80.7917 13.637 80.9838 13.6583 81.1047 13.6867V15.1306C80.9766 15.0808 80.7064 15.0381 80.4006 15.0381C79.3835 15.0381 78.7433 15.7423 78.7433 16.8305V21.4394H77.1999ZM85.4822 14.8746C84.3726 14.8746 83.5689 15.6853 83.4836 16.8732H87.4027C87.3671 15.6712 86.606 14.8746 85.4822 14.8746ZM87.3958 19.1777H88.8675C88.6475 20.5646 87.2888 21.5319 85.5533 21.5319C83.3128 21.5319 81.9188 20.024 81.9188 17.6057C81.9188 15.1875 83.3271 13.6156 85.4893 13.6156C87.6089 13.6156 88.9458 15.0879 88.9458 17.4279V17.9685H83.4764V18.061C83.4764 19.3981 84.3157 20.2801 85.5818 20.2801C86.4779 20.2801 87.1818 19.8534 87.3958 19.1777Z" fill="#F9F9F9"/>
</g>
<path id="logo" d="M15.7397 18.4366C14.8584 19.7197 13.9466 20.9951 12.5071 21.0218C11.0904 21.0486 10.6363 20.1864 9.01974 20.1864C7.40144 20.1864 6.89521 20.9951 5.55761 21.0486C4.16792 21.1003 3.11123 19.6626 2.22257 18.3851C0.407046 15.7732 -0.978625 11 0.884958 7.7787C1.8078 6.17894 3.46142 5.16676 5.25338 5.14004C6.61812 5.11503 7.90735 6.05606 8.74096 6.05606C9.57582 6.05606 11.1406 4.92626 12.7857 5.09197C13.4744 5.12029 15.407 5.36821 16.6482 7.17639C16.5502 7.24057 14.3413 8.51995 14.3682 11.1853C14.3953 14.3693 17.1707 15.4276 17.2029 15.4419C17.1777 15.5168 16.7593 16.9528 15.7397 18.4366ZM9.69585 1.59439C10.4577 0.705546 11.7451 0.0444228 12.8075 0C12.9432 1.23466 12.4442 2.47101 11.7074 3.36191C10.969 4.2512 9.7604 4.94396 8.57424 4.85146C8.41305 3.64352 9.01087 2.38376 9.69585 1.59439Z" fill="white"/>
</g>
</svg>
