<svg width="97" height="24" viewBox="0 0 97 24" fill="none" xmlns="http://www.w3.org/2000/svg">
<g id="Logo">
<path id="Shape" fill-rule="evenodd" clip-rule="evenodd" d="M0.945831 10.7436V1.64621C0.945831 1.12636 1.38008 0.693146 1.81432 0.693146C2.24857 0.693146 2.42227 0.779788 2.68282 0.953073L19.4447 10.1372C19.7921 10.3104 19.9658 10.5704 19.9658 10.8304C19.9658 11.0902 19.7921 11.3502 19.4447 11.5234L2.68282 20.7076C2.50912 20.7942 2.24857 20.9675 1.81432 20.9675C1.38008 20.9675 0.945831 20.5343 0.945831 20.0144V10.7436Z" fill="url(#paint0_linear_149_17326)"/>
<path id="Shape_2" fill-rule="evenodd" clip-rule="evenodd" d="M11.8995 10.8712L1.73816 0.733948C1.82501 0.733948 1.82501 0.733948 1.91186 0.733948C2.3461 0.733948 2.5198 0.82059 2.78035 0.993875L15.1129 7.75199L11.8995 10.8712Z" fill="url(#paint1_linear_149_17326)"/>
<path id="Shape_3" fill-rule="evenodd" clip-rule="evenodd" d="M15.0305 13.9928L11.9039 10.8736L15.1173 7.66791L19.5467 10.0939C19.8941 10.2672 20.0678 10.5272 20.0678 10.787C20.0678 11.047 19.8941 11.3069 19.5467 11.4802L15.0305 13.9928Z" fill="url(#paint2_linear_149_17326)"/>
<path id="Shape_4" fill-rule="evenodd" clip-rule="evenodd" d="M1.828 20.9217L11.9025 10.8711L15.0291 13.9903L2.78335 20.6617C2.5228 20.8351 2.3491 20.9217 1.828 20.9217C1.91485 20.9217 1.91485 20.9217 1.828 20.9217Z" fill="url(#paint3_linear_149_17326)"/>
<g id="Vector">
<path fill-rule="evenodd" clip-rule="evenodd" d="M54.1844 23.1336C53.7501 22.787 53.4027 22.1805 53.229 21.8339L54.6186 21.2274C54.7055 21.4007 54.8792 21.6606 55.0529 21.9206C55.4003 22.2671 55.9214 22.6137 56.4424 22.6137C56.9635 22.6137 57.5715 22.3538 57.9189 21.9206C58.1794 21.4873 58.3531 21.0541 58.3531 20.4477V19.9277C57.3109 21.2274 55.1397 21.0541 53.9238 19.6679C52.6211 18.2815 52.6211 15.9422 53.9238 14.556C55.2266 13.2563 57.1372 13.083 58.2663 14.296V13.6895H59.7428V20.1877C59.7428 21.8339 59.1348 22.787 58.3531 23.3935C57.832 23.8267 57.0504 24 56.3556 24C55.574 23.9134 54.7923 23.6534 54.1844 23.1336ZM90.5742 23.4801L92.0507 20.0145L89.4452 14.0361H90.9216L92.7455 18.2815L94.5693 14.0361H96.0457L92.0507 23.4801H90.5742ZM83.5394 20.1877C83.1051 19.7545 82.9314 19.148 82.9314 18.5415C82.9314 18.0217 83.1051 17.5018 83.4525 17.1552C84.0605 16.5487 84.9291 16.2888 85.8844 16.2888C86.4923 16.2888 87.0134 16.3754 87.4477 16.6354C87.4477 15.5957 86.5792 15.1624 85.8844 15.1624C85.2765 15.1624 84.6685 15.509 84.408 16.1155L83.1052 15.5957C83.3657 14.9892 84.0605 13.8628 85.7976 13.8628C86.666 13.8628 87.5345 14.1228 88.0556 14.7292C88.5767 15.3357 88.7504 16.0289 88.7504 16.9819V20.6209H87.274V20.0145C87.1003 20.2743 86.7529 20.4477 86.4923 20.6209C86.1449 20.7942 85.7107 20.8809 85.2765 20.8809C84.7554 20.7942 83.9737 20.6209 83.5394 20.1877ZM37.2489 17.0686C37.2489 15.3357 38.5516 13.4296 40.8965 13.4296C43.1546 13.4296 44.5442 15.3357 44.5442 17.0686C44.5442 18.8015 43.2414 20.7075 40.8965 20.7075C38.5516 20.7075 37.2489 18.8015 37.2489 17.0686ZM45.0652 17.0686C45.0652 15.3357 46.368 13.4296 48.7129 13.4296C50.971 13.4296 52.3605 15.3357 52.3605 17.0686C52.3605 18.8015 51.0578 20.7075 48.7129 20.7075C46.4548 20.7075 45.0652 18.8015 45.0652 17.0686ZM27.4348 18.9747C25.2636 16.8087 25.3505 13.2563 27.5217 11.0036C28.6507 9.87725 30.0403 9.35742 31.5168 9.35742C32.9063 9.35742 34.2959 9.87725 35.3381 10.917L34.2959 12.0434C32.7326 10.4838 30.214 10.5704 28.7376 12.13C27.1743 13.7762 27.1743 16.2888 28.7376 17.935C30.3009 19.5812 32.9063 19.6679 34.4696 18.0217C34.9907 17.5018 35.1644 16.8087 35.2513 16.1155H31.6036V14.556H36.7277C36.8146 14.9025 36.8146 15.3357 36.8146 15.7689C36.8146 17.0686 36.2935 18.3683 35.425 19.2347C34.4696 20.1877 33.08 20.7075 31.6905 20.7075C30.1272 20.6209 28.5639 20.1011 27.4348 18.9747ZM64.1721 19.5812C62.8694 18.1949 62.8694 15.8556 64.1721 14.3826C65.4748 12.9964 67.646 12.9964 68.8619 14.3826C69.2962 14.8159 69.5567 15.4224 69.8173 16.0289L65.0406 18.0217C65.3011 18.6281 65.9091 19.148 66.7776 19.148C67.5592 19.148 68.0803 18.8881 68.6014 18.1083L69.9041 18.9747C69.7304 19.148 69.5567 19.3213 69.4699 19.4945C67.9934 20.9675 65.4748 20.9675 64.1721 19.5812ZM73.2044 20.6209V11.0036H76.3309C78.1548 11.0036 79.6312 12.3032 79.6312 13.8628C79.6312 15.4224 78.3284 16.722 76.6783 16.722H74.7676V20.5343H73.2044V20.6209ZM80.4997 20.6209V11.0036H81.9761V20.6209H80.4997ZM60.8718 20.4477V9.704H62.4351V20.4477H60.8718ZM87.3608 17.7617C87.0134 17.5018 86.4923 17.4151 85.9712 17.4151C84.929 17.4151 84.3211 17.935 84.3211 18.5415C84.3211 19.148 84.929 19.4945 85.537 19.4945C86.4055 19.4945 87.3608 18.8015 87.3608 17.7617ZM42.894 17.0686C42.894 16.0289 42.1992 14.9025 40.8965 14.9025C39.5938 14.9025 38.899 16.0289 38.899 17.0686C38.899 18.1083 39.5938 19.2347 40.8965 19.2347C42.1124 19.2347 42.894 18.1083 42.894 17.0686ZM50.7104 17.0686C50.7104 16.0289 50.0156 14.9025 48.7129 14.9025C47.4102 14.9025 46.7154 16.0289 46.7154 17.0686C46.7154 18.1083 47.4102 19.2347 48.7129 19.2347C50.0156 19.2347 50.7104 18.1083 50.7104 17.0686ZM58.44 17.6751C58.44 17.5885 58.44 17.5018 58.5268 17.4151C58.5268 17.3285 58.5268 17.1552 58.5268 17.0686C58.5268 16.9819 58.5268 16.8087 58.5268 16.722V16.6354C58.5268 16.5487 58.44 16.3754 58.44 16.2888C58.1794 15.4224 57.3978 14.8159 56.6161 14.8159C55.574 14.8159 54.7055 15.8556 54.7055 16.9819C54.7055 18.1949 55.574 19.148 56.703 19.148C57.3978 19.2347 58.0926 18.6281 58.44 17.6751ZM64.78 16.8953L67.9934 15.509C67.646 14.9025 67.125 14.7292 66.6907 14.7292C65.388 14.8159 64.6063 16.2022 64.78 16.8953ZM78.0679 13.9494C78.0679 13.083 77.3731 12.4766 76.4178 12.4766H74.6808V15.509H76.5046C77.3731 15.509 78.0679 14.8159 78.0679 13.9494Z" fill="#F9F9F9"/>
<path d="M26.219 2.51264C26.219 0.953066 27.348 0 28.7376 0C29.6929 0 30.3009 0.433213 30.7351 1.03971L30.0403 1.47292C29.7798 1.12636 29.3455 0.866425 28.7376 0.866425C27.7822 0.866425 27.0875 1.55957 27.0875 2.59928C27.0875 3.63898 27.7822 4.33213 28.7376 4.33213C29.2587 4.33213 29.6929 4.0722 29.8666 3.89892V3.11913H28.477V2.33935H30.822V4.15884C30.3877 4.6787 29.6929 5.02526 28.8244 5.02526C27.348 5.02526 26.219 3.98556 26.219 2.51264Z" fill="#F9F9F9"/>
<path d="M31.8642 4.93862V0.0866429H35.1644V0.866425H32.6458V2.07942H35.0775V2.8592H32.6458V4.24549H35.1644V5.02526L31.8642 4.93862Z" fill="#F9F9F9"/>
<path d="M37.5962 4.93862V0.866426H36.1198V0.0866429H39.9412V0.866426H38.4647V4.93862H37.5962Z" fill="#F9F9F9"/>
<path d="M42.894 4.93862V0.0866429H43.7625V4.93862H42.894Z" fill="#F9F9F9"/>
<path d="M46.1074 4.93862V0.866426H44.631V0.0866429H48.4524V0.866426H46.9759V4.93862H46.1074Z" fill="#F9F9F9"/>
<path d="M51.2315 2.51264C51.2315 1.03971 52.2737 0 53.7501 0C55.2266 0 56.2687 1.03971 56.2687 2.51264C56.2687 3.98556 55.2266 5.02526 53.7501 5.02526C52.2737 5.02526 51.2315 3.89892 51.2315 2.51264ZM55.3134 2.51264C55.3134 1.47292 54.7055 0.779783 53.6633 0.779783C52.7079 0.779783 52.0132 1.55957 52.0132 2.51264C52.0132 3.55234 52.6211 4.24549 53.6633 4.24549C54.7055 4.24549 55.3134 3.4657 55.3134 2.51264Z" fill="#F9F9F9"/>
<path d="M60.6113 4.93862L58.0926 1.47292V4.93862H57.2241V0.0866429H58.0926L60.6113 3.4657V0.0866429H61.4798V4.93862H60.6113Z" fill="#F9F9F9"/>
</g>
</g>
<defs>
<linearGradient id="paint0_linear_149_17326" x1="6.56272" y1="-0.542723" x2="11.4247" y2="19.3772" gradientUnits="userSpaceOnUse">
<stop stop-color="#006884"/>
<stop offset="1" stop-color="#8AD1D0"/>
</linearGradient>
<linearGradient id="paint1_linear_149_17326" x1="0.0365226" y1="2.33146" x2="13.2862" y2="9.47731" gradientUnits="userSpaceOnUse">
<stop stop-color="#24BBB6"/>
<stop offset="1" stop-color="#DBE692"/>
</linearGradient>
<linearGradient id="paint2_linear_149_17326" x1="5.12483" y1="7.51204" x2="5.12483" y2="0.625346" gradientUnits="userSpaceOnUse">
<stop stop-color="#FCC072"/>
<stop offset="1" stop-color="#F58A5B"/>
</linearGradient>
<linearGradient id="paint3_linear_149_17326" x1="2.51819" y1="12.6639" x2="12.985" y2="2.03701" gradientUnits="userSpaceOnUse">
<stop stop-color="#712B8F"/>
<stop offset="1" stop-color="#EA1D27"/>
</linearGradient>
</defs>
</svg>
