<svg width="55" height="55" viewBox="0 0 55 55" fill="none" xmlns="http://www.w3.org/2000/svg">
<g id="vuesax/linear/profile-2user">
<g id="profile-2user">
<path id="Vector" d="M21.5148 24.7242C21.2898 24.7017 21.0198 24.7017 20.7723 24.7242C15.4173 24.5442 11.1648 20.1567 11.1648 14.7567C11.1648 9.24422 15.6198 4.76672 21.1548 4.76672C26.6673 4.76672 31.1448 9.24422 31.1448 14.7567C31.1223 20.1567 26.8698 24.5442 21.5148 24.7242Z" stroke="#532181" stroke-width="3" stroke-linecap="round" stroke-linejoin="round"/>
<path id="Vector_2" d="M37.8273 9.26672C42.1923 9.26672 45.7023 12.7992 45.7023 17.1417C45.7023 21.3942 42.3273 24.8592 38.1198 25.0167C37.9398 24.9942 37.7373 24.9942 37.5348 25.0167" stroke="#532181" stroke-width="3" stroke-linecap="round" stroke-linejoin="round"/>
<path id="Vector_3" d="M10.2648 33.0267C4.81978 36.6717 4.81978 42.6117 10.2648 46.2342C16.4523 50.3742 26.5998 50.3742 32.7873 46.2342C38.2323 42.5892 38.2323 36.6492 32.7873 33.0267C26.6223 28.9092 16.4748 28.9092 10.2648 33.0267Z" stroke="#532181" stroke-width="3" stroke-linecap="round" stroke-linejoin="round"/>
<path id="Vector_4" d="M42.1698 45.2667C43.7898 44.9292 45.3198 44.2767 46.5798 43.3092C50.0898 40.6767 50.0898 36.3342 46.5798 33.7017C45.3423 32.7567 43.8348 32.1267 42.2373 31.7667" stroke="#532181" stroke-width="3" stroke-linecap="round" stroke-linejoin="round"/>
</g>
</g>
</svg>
