<svg width="54" height="55" viewBox="0 0 54 55" fill="none" xmlns="http://www.w3.org/2000/svg">
<g id="vuesax/linear/profile">
<g id="profile">
<path id="Vector" d="M27.36 25.4004C27.135 25.3779 26.865 25.3779 26.6175 25.4004C21.2625 25.2204 17.01 20.8329 17.01 15.4329C17.01 9.92037 21.465 5.44287 27 5.44287C32.5125 5.44287 36.99 9.92037 36.99 15.4329C36.9675 20.8329 32.715 25.2204 27.36 25.4004Z" stroke="#532181" stroke-width="3" stroke-linecap="round" stroke-linejoin="round"/>
<path id="Vector_2" d="M16.11 33.7029C10.665 37.3479 10.665 43.2879 16.11 46.9104C22.2975 51.0504 32.445 51.0504 38.6325 46.9104C44.0775 43.2654 44.0775 37.3254 38.6325 33.7029C32.4675 29.5854 22.32 29.5854 16.11 33.7029Z" stroke="#532181" stroke-width="3" stroke-linecap="round" stroke-linejoin="round"/>
</g>
</g>
</svg>
