<svg width="53" height="52" viewBox="0 0 53 52" fill="none" xmlns="http://www.w3.org/2000/svg">
<g id="vuesax/linear/setting-2">
<g id="setting-2">
<path id="Vector" d="M26.4905 32.306C30.0232 32.306 32.887 29.4422 32.887 25.9096C32.887 22.3769 30.0232 19.5131 26.4905 19.5131C22.9579 19.5131 20.0941 22.3769 20.0941 25.9096C20.0941 29.4422 22.9579 32.306 26.4905 32.306Z" stroke="#532181" stroke-width="3.31667" stroke-miterlimit="10" stroke-linecap="round" stroke-linejoin="round"/>
<path id="Vector_2" d="M5.16907 27.7859V24.0333C5.16907 21.8159 6.98139 19.9822 9.22014 19.9822C13.0793 19.9822 14.6571 17.2531 12.7169 13.9056C11.6081 11.9867 12.2691 9.49207 14.2094 8.38336L17.898 6.27254C19.5824 5.27043 21.7571 5.86743 22.7592 7.55182L22.9938 7.95693C24.9127 11.3044 28.0683 11.3044 30.0085 7.95693L30.2431 7.55182C31.2452 5.86743 33.42 5.27043 35.1044 6.27254L38.793 8.38336C40.7332 9.49207 41.3942 11.9867 40.2855 13.9056C38.3452 17.2531 39.923 19.9822 43.7822 19.9822C45.9996 19.9822 47.8332 21.7945 47.8332 24.0333V27.7859C47.8332 30.0033 46.0209 31.8369 43.7822 31.8369C39.923 31.8369 38.3452 34.5661 40.2855 37.9135C41.3942 39.8538 40.7332 42.3271 38.793 43.4358L35.1044 45.5466C33.42 46.5487 31.2452 45.9517 30.2431 44.2673L30.0085 43.8622C28.0896 40.5148 24.934 40.5148 22.9938 43.8622L22.7592 44.2673C21.7571 45.9517 19.5824 46.5487 17.898 45.5466L14.2094 43.4358C12.2691 42.3271 11.6081 39.8325 12.7169 37.9135C14.6571 34.5661 13.0793 31.8369 9.22014 31.8369C6.98139 31.8369 5.16907 30.0033 5.16907 27.7859Z" stroke="#532181" stroke-width="3.31667" stroke-miterlimit="10" stroke-linecap="round" stroke-linejoin="round"/>
</g>
</g>
</svg>
