<svg width="25" height="25" viewBox="0 0 25 25" fill="none" xmlns="http://www.w3.org/2000/svg">
<g id="bank-note-02">
<path id="Icon" d="M6.879 10.6429V14.637M18.8615 10.6429V14.637M2.88483 8.84548L2.88483 16.4344C2.88483 17.5529 2.88483 18.1121 3.1025 18.5393C3.29396 18.9151 3.59948 19.2206 3.97525 19.4121C4.40245 19.6297 4.96169 19.6297 6.08016 19.6297L19.6603 19.6297C20.7788 19.6297 21.338 19.6297 21.7652 19.4121C22.141 19.2206 22.4465 18.9151 22.638 18.5393C22.8557 18.1121 22.8557 17.5529 22.8557 16.4344V8.84548C22.8557 7.72701 22.8557 7.16777 22.638 6.74057C22.4465 6.3648 22.141 6.05928 21.7652 5.86782C21.338 5.65015 20.7788 5.65015 19.6603 5.65015L6.08016 5.65015C4.96169 5.65015 4.40245 5.65015 3.97525 5.86782C3.59948 6.05928 3.29396 6.3648 3.1025 6.74057C2.88483 7.16777 2.88483 7.72701 2.88483 8.84548ZM15.3666 12.6399C15.3666 14.0186 14.2489 15.1363 12.8702 15.1363C11.4916 15.1363 10.3739 14.0186 10.3739 12.6399C10.3739 11.2612 11.4916 10.1436 12.8702 10.1436C14.2489 10.1436 15.3666 11.2612 15.3666 12.6399Z" stroke="white" stroke-width="1.99708" stroke-linecap="round" stroke-linejoin="round"/>
</g>
</svg>
