<svg width="25" height="25" viewBox="0 0 25 25" fill="none" xmlns="http://www.w3.org/2000/svg">
<g id="credit-card-up">
<path id="Icon" d="M16.879 18.4417L19.8746 15.4461M19.8746 15.4461L22.8703 18.4417M19.8746 15.4461V21.4374M22.8703 10.4534H2.89941M22.8703 12.4505V8.65603C22.8703 7.53756 22.8703 6.97832 22.6526 6.55112C22.4611 6.17535 22.1556 5.86983 21.7798 5.67836C21.3526 5.46069 20.7934 5.46069 19.6749 5.46069H6.09475C4.97628 5.46069 4.41704 5.46069 3.98984 5.67836C3.61407 5.86983 3.30855 6.17534 3.11708 6.55112C2.89941 6.97832 2.89941 7.53756 2.89941 8.65603V16.2449C2.89941 17.3634 2.89941 17.9227 3.11708 18.3499C3.30855 18.7256 3.61407 19.0311 3.98984 19.2226C4.41704 19.4403 4.97628 19.4403 6.09475 19.4403H12.8848" stroke="white" stroke-width="1.99708" stroke-linecap="round" stroke-linejoin="round"/>
</g>
</svg>
