<svg width="25" height="24" viewBox="0 0 25 24" fill="none" xmlns="http://www.w3.org/2000/svg">
<g id="mail-04">
<path id="Icon" d="M13.994 2.79694L21.4671 7.65444C21.7312 7.82608 21.8632 7.9119 21.9589 8.02637C22.0435 8.12771 22.1071 8.24492 22.146 8.37114C22.1898 8.51374 22.1898 8.67121 22.1898 8.98615V16.2643C22.1898 17.9322 22.1898 18.7662 21.8652 19.4032C21.5797 19.9636 21.1241 20.4192 20.5637 20.7047C19.9267 21.0293 19.0927 21.0293 17.4248 21.0293H7.10075C5.43285 21.0293 4.59891 21.0293 3.96186 20.7047C3.40149 20.4192 2.9459 19.9636 2.66038 19.4032C2.33578 18.7662 2.33578 17.9322 2.33578 16.2643V8.98615C2.33578 8.67121 2.33578 8.51374 2.37963 8.37114C2.41845 8.24492 2.48206 8.12771 2.56673 8.02637C2.66239 7.9119 2.79443 7.82608 3.05849 7.65444L10.5316 2.79694M13.994 2.79694C13.3674 2.38963 13.0541 2.18597 12.7165 2.10673C12.4181 2.03669 12.1075 2.03669 11.8091 2.10673C11.4715 2.18597 11.1582 2.38963 10.5316 2.79694M13.994 2.79694L21.1654 7.45833C21.5068 7.68025 21.6775 7.79121 21.7366 7.93193C21.7883 8.0549 21.7883 8.19349 21.7366 8.31646C21.6775 8.45717 21.5068 8.56813 21.1654 8.79005L13.994 13.4514C13.3674 13.8588 13.0541 14.0624 12.7165 14.1417C12.4181 14.2117 12.1075 14.2117 11.8091 14.1417C11.4715 14.0624 11.1582 13.8588 10.5316 13.4514L3.36018 8.79005C3.01877 8.56813 2.84806 8.45717 2.78894 8.31646C2.73727 8.19349 2.73727 8.0549 2.78894 7.93193C2.84806 7.79121 3.01877 7.68025 3.36018 7.45834L10.5316 2.79694" stroke="white" stroke-width="1.9854" stroke-linecap="round" stroke-linejoin="round"/>
</g>
</svg>
