<svg width="222" height="24" viewBox="0 0 222 24" fill="none" xmlns="http://www.w3.org/2000/svg">
<g id="social icon">
<path id="Icon awesome-twitter" d="M22.1439 6.85457C22.1596 7.0738 22.1596 7.29309 22.1596 7.51232C22.1596 14.1993 17.07 21.9043 7.76761 21.9043C4.90173 21.9043 2.23946 21.0743 0 19.6336C0.407188 19.6805 0.798661 19.6962 1.22152 19.6962C3.58621 19.6962 5.76306 18.8975 7.50138 17.5351C5.27758 17.4881 3.41398 16.0316 2.77189 14.0271C3.08512 14.074 3.39831 14.1054 3.72721 14.1054C4.18135 14.1054 4.63554 14.0427 5.05835 13.9331C2.7406 13.4633 1.00223 11.4274 1.00223 8.96874V8.90612C1.67561 9.28198 2.4587 9.51688 3.28864 9.54817C1.92618 8.63984 1.03356 7.08947 1.03356 5.33548C1.03356 4.39587 1.28409 3.53454 1.72261 2.78283C4.21264 5.85229 7.95552 7.8568 12.1525 8.07608C12.0742 7.70023 12.0272 7.30875 12.0272 6.91723C12.0272 4.12963 14.2823 1.85889 17.0855 1.85889C18.542 1.85889 19.8574 2.46964 20.7814 3.45626C21.9246 3.23702 23.0208 2.81417 23.9918 2.23474C23.6159 3.40931 22.8173 4.39592 21.768 5.02229C22.786 4.91272 23.7726 4.63077 24.6809 4.2393C23.9919 5.24153 23.1306 6.13414 22.1439 6.85457V6.85457Z" fill="white"/>
<path id="Icon awesome-facebook" d="M75.5988 11.9548C75.5988 5.35076 70.2481 0 63.644 0C57.0399 0 51.6891 5.35076 51.6891 11.9548C51.6891 17.9217 56.0609 22.8675 61.7761 23.7651V15.4107H58.7391V11.9548H61.7761V9.32092C61.7761 6.32498 63.5596 4.6701 66.2914 4.6701C67.5997 4.6701 68.9678 4.90342 68.9678 4.90342V7.84392H67.4599C65.9752 7.84392 65.5119 8.7656 65.5119 9.7109V11.9548H68.8275L68.2972 15.4107H65.5119V23.7651C71.2271 22.8675 75.5988 17.9217 75.5988 11.9548Z" fill="white"/>
<path id="Icon awesome-linkedin" d="M120.672 1.08398H102.156C101.308 1.08398 100.619 1.78296 100.619 2.64101V21.1228C100.619 21.9809 101.308 22.6798 102.156 22.6798H120.672C121.52 22.6798 122.214 21.9809 122.214 21.1228V2.64101C122.214 1.78296 121.52 1.08398 120.672 1.08398ZM107.146 19.5947H103.945V9.28848H107.15V19.5947H107.146ZM105.545 7.88089C104.518 7.88089 103.689 7.04695 103.689 6.025C103.689 5.00305 104.518 4.16911 105.545 4.16911C106.567 4.16911 107.401 5.00305 107.401 6.025C107.401 7.05177 106.572 7.88089 105.545 7.88089ZM119.144 19.5947H115.943V14.5814C115.943 13.3859 115.919 11.8482 114.28 11.8482C112.612 11.8482 112.357 13.1497 112.357 14.4946V19.5947H109.156V9.28848H112.226V10.6961H112.27C112.699 9.88622 113.745 9.03299 115.302 9.03299C118.541 9.03299 119.144 11.1685 119.144 13.9451V19.5947Z" fill="white"/>
<path id="Icon awesome-youtube" d="M174.82 5.52228C174.517 4.38223 173.625 3.48436 172.493 3.17966C170.44 2.62598 162.207 2.62598 162.207 2.62598C162.207 2.62598 153.975 2.62598 151.922 3.17966C150.789 3.48441 149.897 4.38223 149.594 5.52228C149.044 7.58868 149.044 11.9 149.044 11.9C149.044 11.9 149.044 16.2114 149.594 18.2778C149.897 19.4179 150.789 20.2783 151.922 20.583C153.975 21.1367 162.207 21.1367 162.207 21.1367C162.207 21.1367 170.44 21.1367 172.493 20.583C173.625 20.2783 174.517 19.4179 174.82 18.2778C175.37 16.2114 175.37 11.9 175.37 11.9C175.37 11.9 175.37 7.58868 174.82 5.52228V5.52228ZM159.515 15.8144V7.98565L166.395 11.9001L159.515 15.8144V15.8144Z" fill="white"/>
<path id="Icon awesome-instagram" d="M211.198 6.34189C208.133 6.34189 205.66 8.8148 205.66 11.8806C205.66 14.9465 208.133 17.4194 211.198 17.4194C214.264 17.4194 216.737 14.9465 216.737 11.8806C216.737 8.8148 214.264 6.34189 211.198 6.34189ZM211.198 15.4816C209.217 15.4816 207.598 13.8667 207.598 11.8806C207.598 9.8946 209.212 8.27973 211.198 8.27973C213.184 8.27973 214.799 9.8946 214.799 11.8806C214.799 13.8667 213.18 15.4816 211.198 15.4816ZM218.256 6.11532C218.256 6.83358 217.677 7.40722 216.964 7.40722C216.246 7.40722 215.672 6.82876 215.672 6.11532C215.672 5.40189 216.25 4.82343 216.964 4.82343C217.677 4.82343 218.256 5.40189 218.256 6.11532ZM221.924 7.4265C221.842 5.69594 221.447 4.16302 220.179 2.90005C218.916 1.63707 217.383 1.24179 215.653 1.15502C213.869 1.05379 208.523 1.05379 206.739 1.15502C205.014 1.23697 203.481 1.63225 202.213 2.89523C200.945 4.1582 200.555 5.69112 200.468 7.42168C200.367 9.20527 200.367 14.5512 200.468 16.3348C200.55 18.0653 200.945 19.5983 202.213 20.8612C203.481 22.1242 205.009 22.5195 206.739 22.6063C208.523 22.7075 213.869 22.7075 215.653 22.6063C217.383 22.5243 218.916 22.129 220.179 20.8612C221.442 19.5983 221.837 18.0653 221.924 16.3348C222.025 14.5512 222.025 9.21008 221.924 7.4265ZM219.62 18.2485C219.244 19.1933 218.516 19.9212 217.566 20.3021C216.144 20.8661 212.77 20.7359 211.198 20.7359C209.627 20.7359 206.248 20.8612 204.831 20.3021C203.886 19.9261 203.158 19.1982 202.777 18.2485C202.213 16.8265 202.343 13.4521 202.343 11.8806C202.343 10.3092 202.218 6.92999 202.777 5.51276C203.153 4.56794 203.881 3.84004 204.831 3.45922C206.253 2.89523 209.627 3.02538 211.198 3.02538C212.77 3.02538 216.149 2.90005 217.566 3.45922C218.511 3.83522 219.239 4.56312 219.62 5.51276C220.184 6.93481 220.054 10.3092 220.054 11.8806C220.054 13.4521 220.184 16.8313 219.62 18.2485Z" fill="white"/>
</g>
</svg>
